<svg fill="none" xmlns="http://www.w3.org/2000/svg" viewBox="0 0 24 24"><path d="M10.25 8.75a.75.75 0 1 0 0-1.5.75.75 0 0 0 0 1.5ZM14.5 8A.75.75 0 1 1 13 8a.75.75 0 0 1 1.5 0Z" fill="currentColor"/><path fill-rule="evenodd" clip-rule="evenodd" d="M14.837 3.237c-.364.515-.734 1.33-1.054 2.066-.198-.003-.41-.003-.636-.003h-2.294c-.332 0-.634 0-.907.009-.32-.737-.692-1.556-1.056-2.072-.214-.302-.622-.806-1.087-1.035-.442-.218-1.17-.34-1.381.059-.267.5.307.875.953 1.295.205.134.418.273.613.421.661.504 1.11 1.164 1.25 1.388-.335.05-.65.144-.954.325-.364.217-.625.511-.858.855-.218.324-.44.736-.702 1.222L5.387 10.25c-.246.457-.456.846-.599 1.186-.152.363-.252.721-.245 1.122.007.402.119.757.284 1.113.154.336.377.717.638 1.165l1.247 2.138c.268.459.495.849.716 1.154.235.326.495.603.851.807.356.204.726.29 1.126.329.375.037.827.037 1.358.037h.03c.153.287.305.743.457 1.199.25.75.5 1.5.75 1.5s.5-.75.75-1.5c.152-.456.304-.912.456-1.2h.031c.531 0 .983 0 1.358-.036.4-.04.77-.125 1.126-.329.355-.204.616-.481.85-.807.222-.305.45-.695.717-1.154l1.247-2.138c.261-.448.484-.83.638-1.165.165-.356.277-.711.284-1.113.007-.401-.093-.76-.245-1.122-.143-.34-.353-.729-.599-1.186l-1.337-2.483c-.261-.486-.484-.898-.702-1.222-.233-.344-.494-.638-.859-.855-.364-.218-.746-.309-1.16-.35l-.048-.005c.16-.249.598-.875 1.232-1.358.195-.148.407-.287.613-.42.646-.421 1.22-.795.953-1.296-.212-.398-.94-.277-1.381-.059-.465.23-.874.733-1.087 1.035Zm-5.783 3.74c.109-.065.254-.116.541-.145.304-.03.697-.032 1.294-.032h2.222c.597 0 .99.001 1.293.032.288.03.433.08.542.145.11.066.223.17.385.409.171.253.358.598.641 1.124l.399.74H7.629l.399-.74c.283-.526.47-.871.64-1.124.162-.24.276-.343.386-.409ZM6.82 10.75l-.097.181c-.267.495-.441.82-.553 1.086-.105.25-.13.395-.128.516.002.12.032.264.146.51.09.196.215.422.39.726a.75.75 0 0 1 .171-.019h10.5a.75.75 0 0 1 .17.02c.175-.305.301-.531.391-.726.114-.247.144-.39.146-.511.002-.121-.023-.265-.128-.516-.112-.265-.286-.59-.553-1.086l-.097-.181H6.82Zm9.736 4.5H7.443l.547.938c.29.497.481.823.654 1.062.163.225.275.323.382.384.107.062.248.11.525.137.293.029.671.03 1.246.03h2.405c.576 0 .954-.001 1.247-.03.277-.027.418-.075.525-.137.107-.061.22-.159.382-.384.173-.24.364-.565.654-1.062l.547-.938Z" fill="currentColor"/></svg>