<svg fill="none" xmlns="http://www.w3.org/2000/svg" viewBox="0 0 24 24"><path d="M11.453 17.564v.703c-1.136-1.088-2.4-1.73-3.829-2.018-.68-.138-1.378-.2-2.074-.263l-.306-.027c-.673-.062-.89-.258-.891-.914a8568.3 8568.3 0 0 1 0-10.14c0-.706.244-.919.967-.904 1.38.027 2.728.24 3.916.95.556.332 1.045.782 1.527 1.227l.236.217c.355.323.464.753.461 1.252a1032.68 1032.68 0 0 0-.009 7.384l.002 2.533Zm1.112-2.384v3.037h-.001c.144-.107.279-.213.41-.315.27-.211.521-.408.789-.58 1.501-.972 3.191-1.3 4.954-1.367.755-.029.95-.24.95-.984 0-1.149 0-2.298.002-3.447V8.765l.002-.777a699.81 699.81 0 0 0-.002-3.108c-.002-.574-.21-.87-.678-.874-1.923-.013-3.729.376-5.244 1.63-.777.643-1.248 1.378-1.204 2.491.066 1.658.05 3.319.035 4.98-.006.69-.013 1.382-.013 2.072Z" fill="currentColor"/><path d="M10.28 18.81c-2.226-.465-4.449-.36-6.667.045-.095.017-.19.037-.285.056-.097.02-.195.04-.292.057-.695.127-1.031-.144-1.034-.85a763.431 763.431 0 0 1 0-3.384V7.487c0-.918.245-1.128 1.246-1.022v2.66a876.06 876.06 0 0 0 .008 6.023c.007 1.16.705 1.841 1.888 1.905.075.004.15.006.226.008.076.001.152.003.227.007 1.172.063 2.314.273 3.369.799.33.164.641.363.953.561.14.09.281.179.423.265l-.061.116Zm6.66-1.554c-1.182.22-2.28.642-3.165 1.499 2.417-.443 4.799-.279 7.174.201.756.153 1.045-.087 1.045-.84l.002-4.302.003-6.46c0-.792-.38-1.069-1.215-.853v2.73c.001 1.96.002 3.919-.002 5.879-.001 1.168-.77 1.91-1.95 1.955-.633.024-1.27.076-1.891.191Z" fill="currentColor"/></svg>