<svg xmlns="http://www.w3.org/2000/svg" viewBox="0 0 24 24"><path fill-rule="evenodd" clip-rule="evenodd" d="M8.517 16.411a3 3 0 1 1-2.267-.317V7.905A3.001 3.001 0 0 1 7 2a3 3 0 0 1 1.2 5.75h.05v6.173a6.497 6.497 0 0 1 2.841-1.157l.213-.032a6.49 6.49 0 0 1 .963-.072h1.194c.328 0 .653-.06.959-.178l.178-.07A2.187 2.187 0 0 0 16 10.375V7.828a3.001 3.001 0 1 1 2 0v2.544a4.187 4.187 0 0 1-2.683 3.908l-.178.07a4.67 4.67 0 0 1-1.678.311h-1.194c-.223 0-.446.017-.667.05l-.213.031a4.5 4.5 0 0 0-2.87 1.668Z"  fill="currentColor" /></svg>