<svg fill="none" xmlns="http://www.w3.org/2000/svg" viewBox="0 0 24 24"><path fill-rule="evenodd" clip-rule="evenodd" d="M12 6c-3.31 0-6 2.69-6 6h1.79a.5.5 0 0 1 .36.85l-2.79 2.79c-.2.2-.51.2-.71 0l-2.79-2.79c-.32-.31-.1-.85.35-.85H4c0-4.42 3.58-8 8-8 1.04 0 2.04.2 2.95.57.67.27.85 1.13.34 1.64-.27.27-.68.38-1.04.23C13.56 6.15 12.79 6 12 6Zm3.86 5.14 2.79-2.79c.19-.19.51-.19.7.01l2.79 2.79c.32.31.1.85-.35.85H20c0 4.42-3.58 8-8 8-1.04 0-2.04-.2-2.95-.57-.67-.27-.85-1.13-.34-1.64.27-.27.68-.38 1.04-.23.69.29 1.46.44 2.25.44 3.31 0 6-2.69 6-6h-1.79c-.45 0-.67-.54-.35-.86Z" fill="currentColor"/></svg>