<svg xmlns="http://www.w3.org/2000/svg" viewBox="0 0 24 24">
  <path fill="currentColor" d="M4 2h3v2H4v3H2V4a2 2 0 0 1 2-2Zm13 0v2h3v3h2V4a2 2 0 0 0-2-2h-3Zm0 18h3v-3h2v3a2 2 0 0 1-2 2h-3v-2ZM4 20v-3H2v3a2 2 0 0 0 2 2h3v-2H4Zm8.141-4V8h-1.636v4.233a6.632 6.632 0 0 0 .05.857L6.748 8.286a1.442 1.442 0 0 0-.137-.149.44.44 0 0 0-.127-.082.467.467 0 0 0-.148-.044A1.575 1.575 0 0 0 6.134 8h-.977v8h1.636v-4.288c0-.117-.004-.242-.011-.374a5.562 5.562 0 0 0-.027-.417l3.772 4.772c.095.113.19.194.285.241a.89.89 0 0 0 .363.066h.966Zm3.419-4.546V9.428h3.284V8h-5.15v8h1.866v-3.113h2.734v-1.433H15.56Z"/>
  </svg>