<svg fill="none" viewBox="0 0 24 24"  xmlns="http://www.w3.org/2000/svg"><path d="m12 13.4 2.9 2.9c.1833.1833.4167.275.7.275s.5167-.0917.7-.275.275-.4167.275-.7-.0917-.5167-.275-.7l-2.9-2.9 2.9-2.9c.1833-.18333.275-.41667.275-.7s-.0917-.51667-.275-.7-.4167-.275-.7-.275-.5167.09167-.7.275l-2.9 2.9-2.9-2.9c-.18333-.18333-.41667-.275-.7-.275s-.51667.09167-.7.275-.275.41667-.275.7.09167.51667.275.7l2.9 2.9-2.9 2.9c-.18333.1833-.275.4167-.275.7s.09167.5167.275.7.41667.275.7.275.51667-.0917.7-.275zm0 8.6c-1.3833 0-2.68333-.2625-3.9-.7875s-2.275-1.2375-3.175-2.1375-1.6125-1.9583-2.1375-3.175-.7875-2.5167-.7875-3.9.2625-2.68333.7875-3.9 1.2375-2.275 2.1375-3.175 1.95833-1.6125 3.175-2.1375 2.5167-.7875 3.9-.7875 2.6833.2625 3.9.7875 2.275 1.2375 3.175 2.1375 1.6125 1.95833 2.1375 3.175.7875 2.5167.7875 3.9-.2625 2.6833-.7875 3.9-1.2375 2.275-2.1375 3.175-1.9583 1.6125-3.175 2.1375-2.5167.7875-3.9.7875z" fill="currentColor"/></svg>