<svg  viewBox="0 0 24 24" fill="none" xmlns="http://www.w3.org/2000/svg">
<path d="M12.9123 17.7865C12.6478 17.7864 12.394 17.677 12.2072 17.4831C11.8177 17.0793 11.8176 16.4275 12.2072 16.0237L16.0871 12.0058L12.2072 7.9868C11.8175 7.58289 11.8273 6.92012 12.2072 6.51634C12.5972 6.11259 13.2274 6.11268 13.6174 6.51634L18.2072 11.2695C18.5972 11.6734 18.5972 12.326 18.2072 12.7299L13.6174 17.4831C13.4305 17.677 13.1768 17.7865 12.9123 17.7865Z" fill="currentColor" />
<path d="M7.32734 17.7865C7.06287 17.7864 6.80906 17.677 6.62226 17.4831C6.23271 17.0793 6.23266 16.4275 6.62226 16.0237L10.5021 12.0058L6.62226 7.9868C6.23258 7.58289 6.24236 6.92011 6.62226 6.51634C7.0122 6.11258 7.64242 6.11269 8.03241 6.51634L12.6223 11.2695C13.0122 11.6734 13.0122 12.326 12.6223 12.7299L8.03242 17.4831C7.84558 17.677 7.59185 17.7865 7.32734 17.7865Z" fill="currentColor" />
</svg>
