<svg viewBox="0 0 24 24" fill="none" xmlns="http://www.w3.org/2000/svg">
<path d="M11.0872 6.21381C11.3517 6.21381 11.6055 6.32271 11.7923 6.51654C12.1823 6.92042 12.1823 7.57261 11.7923 7.9765L7.91244 11.9951L11.7923 16.0126C12.1823 16.4165 12.1723 17.0795 11.7923 17.4833C11.4023 17.8872 10.7722 17.8872 10.3822 17.4833L5.79233 12.7304C5.40245 12.3266 5.40267 11.6744 5.79233 11.2704L10.3822 6.51654C10.5689 6.3227 10.8228 6.21389 11.0872 6.21381Z" fill="currentColor" />
<path d="M16.6722 6.21381C16.9367 6.21381 17.1905 6.3227 17.3773 6.51654C17.7673 6.92041 17.7673 7.57261 17.3773 7.9765L13.4974 11.9951L17.3773 16.0126C17.7673 16.4165 17.7573 17.0795 17.3773 17.4833C16.9873 17.8872 16.3571 17.8872 15.9671 17.4833L11.3773 12.7304C10.9874 12.3266 10.9876 11.6744 11.3773 11.2704L15.9671 6.51654C16.1539 6.32269 16.4078 6.21389 16.6722 6.21381Z" fill="currentColor" />
</svg>
