<svg   viewBox="0 0 24 24" fill="none" xmlns="http://www.w3.org/2000/svg">
<path fill-rule="evenodd" clip-rule="evenodd" d="M12 2C17.5228 2 22 6.47715 22 12C22 17.5228 17.5228 22 12 22C6.47715 22 2 17.5228 2 12C2 6.47715 6.47715 2 12 2ZM16.25 8.5752C15.9667 8.5752 15.7331 8.66637 15.5498 8.84961L10.5996 13.7998L8.4502 11.6504C8.26688 11.4671 8.03329 11.375 7.75 11.375C7.46667 11.375 7.23314 11.4671 7.0498 11.6504C6.86672 11.8336 6.77548 12.0666 6.77539 12.3496C6.77539 12.6329 6.86657 12.8665 7.0498 13.0498L9.90039 15.9004C10.1002 16.1 10.3333 16.2001 10.5996 16.2002C10.8662 16.2002 11.0999 16.1002 11.2998 15.9004L16.9502 10.25C17.1334 10.0667 17.2246 9.83306 17.2246 9.5498C17.2246 9.26656 17.1335 9.0329 16.9502 8.84961C16.7669 8.66633 16.5333 8.57522 16.25 8.5752Z" fill="currentColor"/>
</svg>
