<svg   viewBox="0 0 24 24" fill="none" xmlns="http://www.w3.org/2000/svg">
<path fill-rule="evenodd" clip-rule="evenodd" d="M19 3C19.55 3 20.0204 3.19622 20.4121 3.58789C20.8038 3.97956 21 4.45 21 5V19C21 19.55 20.8038 20.0204 20.4121 20.4121C20.0204 20.8038 19.55 21 19 21H5C4.45 21 3.97956 20.8038 3.58789 20.4121C3.19622 20.0204 3 19.55 3 19V5C3 4.45 3.19622 3.97956 3.58789 3.58789C3.97956 3.19622 4.45 3 5 3H19ZM16.25 8.1748C15.9667 8.1748 15.7331 8.26686 15.5498 8.4502L10.5996 13.4004L8.4502 11.25C8.26688 11.0667 8.03329 10.9746 7.75 10.9746C7.46667 10.9746 7.23314 11.0667 7.0498 11.25C6.8665 11.4333 6.77539 11.6669 6.77539 11.9502C6.77543 12.2334 6.86651 12.4671 7.0498 12.6504L9.90039 15.5C10.1003 15.6998 10.3332 15.7997 10.5996 15.7998C10.8663 15.7998 11.0998 15.7 11.2998 15.5L16.9502 9.84961C17.1332 9.66641 17.2245 9.43337 17.2246 9.15039C17.2246 8.86718 17.1334 8.63349 16.9502 8.4502C16.7669 8.26688 16.5333 8.17483 16.25 8.1748Z" fill="currentColor"/>
</svg>
