<svg viewBox="0 0 24 24" fill="none" xmlns="http://www.w3.org/2000/svg">
<path fill-rule="evenodd" clip-rule="evenodd" d="M22 12C22 17.5228 17.5228 22 12 22C6.47715 22 2 17.5228 2 12C2 6.47715 6.47715 2 12 2C17.5228 2 22 6.47715 22 12ZM17.81 8.69336C18.1424 8.25229 18.0543 7.62529 17.6132 7.29291C17.1721 6.96054 16.5451 7.04866 16.2127 7.48973L10.7964 14.6775L7.60187 12.2702C7.1608 11.9378 6.53379 12.0259 6.20142 12.467C5.86905 12.9081 5.95717 13.5351 6.39824 13.8675L11.1901 17.4784L17.81 8.69336Z" fill="currentColor"/>
</svg>
