<svg xmlns="http://www.w3.org/2000/svg" viewBox="0 0 24 24"><path d="M12.326 8.156c-.166.476-.138 1.033.218 1.39.433.432 1.157.397 1.428-.153a5.125 5.125 0 1 0-9.04.288c.292.506.976.521 1.388.109.373-.373.38-.965.175-1.45a3.125 3.125 0 1 1 5.831-.183Z"/><path d="M9.375 6a1 1 0 0 1 1 1v7.246a1.437 1.437 0 0 1-1.938 1.347l-.72-.267 2.378 3.242a.75.75 0 0 0 .605.307h6.113a.75.75 0 0 0 .75-.75V13.75a.75.75 0 0 0-.75-.75h-2.625a1 1 0 0 1 0-2h2.625a2.75 2.75 0 0 1 2.75 2.75v4.375a2.75 2.75 0 0 1-2.75 2.75H10.7a2.75 2.75 0 0 1-2.218-1.124l-4.288-5.847A.996.996 0 0 1 4 13.286a1 1 0 0 1 1.348-.973l3.026 1.124V7a1 1 0 0 1 1-1Z"  fill="currentColor" /></svg>