<svg viewBox="0 0 24 24" xmlns="http://www.w3.org/2000/svg"><path d="m4.825 12.025 3.875 3.875a.948.948 0 0 1 .275.7.948.948 0 0 1 -.275.7.948.948 0 0 1 -.7.275.948.948 0 0 1 -.7-.275l-4.6-4.6a.877.877 0 0 1 -.212-.325 1.106 1.106 0 0 1 -.063-.375c0-.133.02-.258.063-.375a.878.878 0 0 1 .212-.325l4.6-4.6c.2-.2.438-.3.713-.3s.512.1.712.3.3.438.3.713-.1.512-.3.712zm14.35-.05-3.875-3.875a.948.948 0 0 1 -.275-.7.95.95 0 0 1 .275-.7.948.948 0 0 1 .7-.275.95.95 0 0 1 .7.275l4.6 4.6c.1.1.17.208.212.325s.063.242.063.375-.02.258-.063.375a.876.876 0 0 1 -.212.325l-4.6 4.6c-.2.2-.433.296-.7.287a1.006 1.006 0 0 1 -.7-.312c-.2-.2-.3-.438-.3-.712 0-.275.1-.513.3-.713z"  fill="currentColor" /></svg>