<svg xmlns="http://www.w3.org/2000/svg" viewBox="0 0 24 24"><path fill="currentColor" d="M9.75 14a.25.25 0 0 1 .25.25v4.946a.25.25 0 0 1-.427.177L7.96 17.76a.25.25 0 0 0-.354 0l-2.062 2.063a.25.25 0 0 1-.354 0L4.177 18.81a.25.25 0 0 1 0-.354l2.063-2.062a.25.25 0 0 0 0-.354l-1.613-1.613A.25.25 0 0 1 4.804 14H9.75Zm9.446 0a.25.25 0 0 1 .177.427l-1.613 1.612a.251.251 0 0 0 0 .355l2.063 2.062a.25.25 0 0 1 0 .354l-1.014 1.013a.25.25 0 0 1-.353 0l-2.063-2.063a.25.25 0 0 0-.353 0l-1.613 1.613a.25.25 0 0 1-.427-.177V14.25a.25.25 0 0 1 .25-.25h4.946ZM5.19 4.177a.25.25 0 0 1 .354 0L7.606 6.24a.25.25 0 0 0 .354 0l1.613-1.613a.25.25 0 0 1 .427.177V9.75a.25.25 0 0 1-.25.25H4.804a.25.25 0 0 1-.177-.427L6.239 7.96a.25.25 0 0 0 0-.354L4.177 5.544a.25.25 0 0 1 0-.354L5.19 4.177Zm13.266 0a.25.25 0 0 1 .354 0l1.013 1.013a.25.25 0 0 1 0 .354L17.76 7.607a.25.25 0 0 0 0 .353l1.613 1.613a.25.25 0 0 1-.177.427H14.25a.25.25 0 0 1-.25-.25V4.804a.25.25 0 0 1 .427-.177l1.612 1.612a.251.251 0 0 0 .354 0l2.063-2.062Z"/></svg>