<svg xmlns="http://www.w3.org/2000/svg" viewBox="0 0 24 24"><path d="M13.588 20.413c.391.391.862.587 1.412.587.55 0 1.02-.196 1.413-.587A1.93 1.93 0 0 0 17 19a1.93 1.93 0 0 0-.275-1.025A2.154 2.154 0 0 0 16 17.25v-.55l4.625-1.55c.417-.133.75-.375 1-.725S22 13.683 22 13.25v-1.525c.3-.183.542-.42.725-.713.183-.291.275-.629.275-1.012 0-.55-.196-1.02-.587-1.412A1.926 1.926 0 0 0 21 8c-.55 0-1.02.196-1.413.588A1.926 1.926 0 0 0 19 10c0 .383.092.72.275 1.012.183.292.425.53.725.713v1.55L16 14.6v-2.875c.3-.183.542-.42.725-.713.183-.291.275-.629.275-1.012 0-.55-.196-1.02-.587-1.412A1.926 1.926 0 0 0 15 8c-.55 0-1.02.196-1.412.588A1.926 1.926 0 0 0 13 10c0 .383.092.72.275 1.012.183.292.425.53.725.713v5.525c-.3.183-.542.425-.725.725A1.93 1.93 0 0 0 13 19c0 .55.196 1.02.588 1.413Z"/><path d="M2.587 17.413C2.98 17.803 3.45 18 4 18h6a.97.97 0 0 0 .713-.288A.968.968 0 0 0 11 17a.968.968 0 0 0-.287-.712A.968.968 0 0 0 10 16H4V4h5.175l2 2H21a.97.97 0 0 0 .712-.287A.967.967 0 0 0 22 5a.967.967 0 0 0-.288-.713A.968.968 0 0 0 21 4h-9l-1.425-1.425A1.975 1.975 0 0 0 9.175 2H4c-.55 0-1.02.196-1.413.587A1.926 1.926 0 0 0 2 4v12c0 .55.196 1.02.587 1.413Z"  fill="currentColor" /></svg>