<svg fill="none" xmlns="http://www.w3.org/2000/svg" viewBox="0 0 24 24"><path d="m19.03 20.499-1.79-1.809 1.4-1.406 1.8 1.798-1.41 1.417ZM12 5.973c-3.31 0-6 2.702-6 6.027s2.69 6.027 6 6.027 6-2.702 6-6.027-2.69-6.027-6-6.027Zm8 5.022v2.01h3v-2.01h-3Zm.45-6.067L19.04 3.51l-1.79 1.8 1.41 1.416 1.79-1.798ZM13 1h-2v2.963h2V1ZM6.76 5.31l-1.8-1.8-1.41 1.418 1.79 1.798L6.76 5.31ZM4 10.995H1v2.01h3v-2.01Zm-.45 8.077 1.41 1.417 1.79-1.809-1.41-1.416-1.79 1.808ZM11 23h2v-2.963h-2V23Z" fill="currentColor"/></svg>