<svg fill="none" xmlns="http://www.w3.org/2000/svg" viewBox="0 0 24 24"><path d="m20.45 5.46-1.41-1.41-1.79 1.79 1.41 1.41 1.79-1.79Zm-.472 8.693C19.522 11.78 17.522 10 15.12 10c-1.907 0-3.564 1.128-4.389 2.778-1.987.22-3.531 1.973-3.531 4.097C7.2 19.151 8.975 21 11.16 21h8.58c1.822 0 3.3-1.54 3.3-3.437 0-1.815-1.353-3.287-3.062-3.41Z" fill="currentColor"/><path d="M6 12.5c0-3.31 2.69-6 6-6 1.895 0 3.586.882 4.686 2.256a6.016 6.016 0 0 0-1.566-.206 5.954 5.954 0 0 0-5.276 3.172 4.755 4.755 0 0 0-3.631 2.366A5.993 5.993 0 0 1 6 12.5Zm-2-1H1v2h3v-2Zm.96-7.45 1.8 1.79-1.42 1.41-1.79-1.79 1.41-1.41ZM11 1.55h2V4.5h-2V1.55Z" fill="currentColor"/></svg>