<svg xmlns="http://www.w3.org/2000/svg" viewBox="0 0 24 24"><path fill="currentColor" d="M21 6.4c0 .267-.046.52-.137.762a1.874 1.874 0 0 1-.438.663l-4.175 4.15c-.2.2-.433.3-.7.3a.96.96 0 0 1-.7-.3L12.025 9.15a.96.96 0 0 1-.3-.7c0-.267.1-.5.3-.7L16.2 3.575c.2-.2.42-.346.663-.438a2.132 2.132 0 0 1 1.537.013c.25.1.467.25.65.45L20.425 5c.2.183.346.4.438.65.091.25.137.5.137.75Zm-1.9 15.5-6.375-6.35-4.9 4.875a1.975 1.975 0 0 1-1.4.575H4a.967.967 0 0 1-.712-.288A.968.968 0 0 1 3 20v-2.4a1.975 1.975 0 0 1 .575-1.4l4.9-4.9L2.1 4.9a.916.916 0 0 1-.287-.7c.008-.267.112-.5.312-.7.2-.2.438-.3.713-.3.275 0 .512.1.712.3l16.975 16.975c.2.2.296.438.288.712a1.02 1.02 0 0 1-.313.713c-.2.2-.433.3-.7.3a.96.96 0 0 1-.7-.3ZM17.6 7.8 19 6.4 17.6 5l-1.4 1.4 1.4 1.4Z"/></svg>