<svg xmlns="http://www.w3.org/2000/svg" viewBox="0 0 24 24"><path fill="currentColor" d="M7.456 15.177a.25.25 0 0 1 .354 0l1.013 1.013a.25.25 0 0 1 0 .354L6.76 18.606a.25.25 0 0 0 0 .354l1.613 1.613a.25.25 0 0 1-.177.427H3.25a.25.25 0 0 1-.25-.25v-4.946a.25.25 0 0 1 .427-.177L5.04 17.24a.25.25 0 0 0 .354 0l2.062-2.063Zm8.734 0a.25.25 0 0 1 .354 0l2.062 2.063a.25.25 0 0 0 .354 0l1.613-1.613a.25.25 0 0 1 .427.177v4.946a.25.25 0 0 1-.25.25h-4.946a.25.25 0 0 1-.177-.427l1.613-1.613a.25.25 0 0 0 0-.354l-2.063-2.062a.25.25 0 0 1 0-.354l1.013-1.013ZM8.196 3a.25.25 0 0 1 .177.427L6.76 5.04a.25.25 0 0 0 0 .354l2.063 2.062a.25.25 0 0 1 0 .354L7.81 8.823a.25.25 0 0 1-.354 0L5.394 6.76a.25.25 0 0 0-.354 0L3.427 8.373A.25.25 0 0 1 3 8.196V3.25A.25.25 0 0 1 3.25 3h4.946ZM20.75 3a.25.25 0 0 1 .25.25v4.946a.25.25 0 0 1-.427.177L18.96 6.76a.25.25 0 0 0-.354 0l-2.062 2.063a.25.25 0 0 1-.354 0L15.177 7.81a.25.25 0 0 1 0-.354l2.063-2.062a.25.25 0 0 0 0-.354l-1.613-1.613A.25.25 0 0 1 15.804 3h4.946Z"/></svg>