<svg xmlns="http://www.w3.org/2000/svg" viewBox="0 0 24 24"><path fill="currentColor" d="M2 15.3c0 3.003 2.672 6.016 5.298 6.016 2.349 0 3.542-2.08 4.818-5.748.074 0 .157-.01.24-.019.13-.01.25-.018.36-.046v3.835c0 1.729.898 2.662 2.58 2.662 3.015 0 6.029-2.671 6.029-5.305 0-2.348-2.08-3.53-5.76-4.806 0-.083-.01-.157-.019-.24 0-.12-.018-.24-.046-.37h3.837c1.738 0 2.663-.896 2.663-2.578 0-3.004-2.672-6.017-5.298-6.017-2.358 0-3.542 2.08-4.818 5.758-.083 0-.157 0-.23.009-.13.01-.26.028-.37.046V4.662c0-1.729-.898-2.662-2.58-2.662-3.015 0-6.029 2.671-6.029 5.296 0 2.347 2.08 3.54 5.76 4.815 0 .083 0 .175.01.259.009.11.027.23.046.342H4.663c-1.73 0-2.663.905-2.663 2.587ZM9.952 12c0-1.127.915-2.052 2.043-2.052A2.06 2.06 0 0 1 14.048 12a2.052 2.052 0 0 1-2.053 2.043A2.044 2.044 0 0 1 9.952 12Zm.823 0c0 .675.536 1.21 1.22 1.21.675 0 1.212-.535 1.212-1.21 0-.675-.537-1.22-1.212-1.22-.684 0-1.22.545-1.22 1.22Z"/></svg>