<svg xmlns="http://www.w3.org/2000/svg" viewBox="0 0 24 24"><path fill="currentColor" d="M21.321 16.615c0-2.358-2.073-3.725-5.752-4.844a2.723 2.723 0 0 0-.046-.395h3.734c1.761 0 2.743-.945 2.743-2.651 0-2.991-2.706-6.046-5.395-6.046-2.348 0-3.724 2.073-4.844 5.743-.128.01-.256.028-.385.046V4.734C11.376 2.982 10.422 2 8.725 2c-3 .01-6.046 2.706-6.046 5.385 0 2.358 2.064 3.734 5.743 4.854.01.128.028.256.046.376H4.734c-1.762 0-2.734.954-2.734 2.66 0 2.991 2.697 6.055 5.376 6.055 2.358 0 3.734-2.082 4.853-5.761.129-.01.266-.028.395-.046v3.743c0 1.752.945 2.734 2.642 2.734 2.99 0 6.055-2.697 6.055-5.385Zm-17.01-9.23c0-1.789 2.313-3.743 4.395-3.743.762 0 1.028.275 1.028 1.092v4.495c-.431.349-.78.808-1.01 1.322-2.89-.881-4.412-1.707-4.412-3.166Zm12.294-3.073c1.79 0 3.753 2.321 3.753 4.404 0 .761-.285 1.018-1.101 1.018H14.76a3.585 3.585 0 0 0-1.32-1.01c.89-2.88 1.715-4.412 3.164-4.412Zm-4.614 9.642A1.956 1.956 0 0 1 10.037 12c0-1.083.88-1.973 1.954-1.973 1.082 0 1.972.89 1.972 1.973 0 1.083-.89 1.954-1.972 1.954Zm0-.688c.706 0 1.275-.56 1.275-1.266a1.275 1.275 0 1 0-2.55 0c0 .716.568 1.266 1.275 1.266Zm2.266 6 .01-4.495a3.66 3.66 0 0 0 1.008-1.322c2.881.881 4.404 1.716 4.404 3.166 0 1.789-2.312 3.752-4.395 3.743-.77 0-1.027-.275-1.027-1.092ZM3.642 15.284c0-.761.275-1.027 1.092-1.027l4.486.01c.358.43.807.779 1.33 1.008-.89 2.881-1.715 4.404-3.174 4.404-1.78 0-3.734-2.312-3.734-4.395Z"/></svg>