<svg xmlns="http://www.w3.org/2000/svg" viewBox="0 0 24 24"><path fill-rule="evenodd" clip-rule="evenodd" d="M8.321 6.469c-1.406-.633-3.018.092-3.6 1.62L2.61 13.62c-.583 1.528.085 3.279 1.491 3.911 1.407.633 3.019-.092 3.602-1.62l.174-.456c.204.03.412.046.625.046h7.053c.193 0 .383-.013.57-.038l.17.448c.583 1.528 2.195 2.253 3.602 1.62 1.406-.632 2.074-2.383 1.492-3.91l-2.11-5.532c-.583-1.528-2.195-2.253-3.601-1.62a2.73 2.73 0 0 0-.897.65H9.218a2.745 2.745 0 0 0-.897-.65ZM8.265 9.12a.48.48 0 0 0-.48.48v.96h-.96a.48.48 0 0 0 0 .96h.96v.96a.48.48 0 0 0 .96 0v-.96h.96a.48.48 0 1 0 0-.96h-.96V9.6a.48.48 0 0 0-.48-.48Zm7.38.12a.66.66 0 1 0 0 1.32.66.66 0 0 0 0-1.32Zm-.66 3.06a.66.66 0 1 1 1.32 0 .66.66 0 0 1-1.32 0Zm-1.2-1.2a.66.66 0 1 1 1.32 0 .66.66 0 0 1-1.32 0Zm2.4 0a.66.66 0 1 1 1.32 0 .66.66 0 0 1-1.32 0Z"  fill="currentColor" /></svg>