<svg   viewBox="0 0 24 24" fill="none" xmlns="http://www.w3.org/2000/svg">
<path d="M7.28613 16.0005C7.72379 18.972 8.63576 21.4055 9.80273 22.7798C6.11245 22.0316 3.09508 19.4362 1.75293 16.0005H7.28613Z" fill="currentColor"/>
<path d="M22.2471 16.0005C20.9048 19.4365 17.887 22.0318 14.1963 22.7798C15.3635 21.4056 16.2762 18.9724 16.7139 16.0005H22.2471Z" fill="currentColor"/>
<path d="M15.1973 16.0005C14.9607 17.5068 14.5982 18.8362 14.1514 19.9087C13.7443 20.8857 13.2972 21.5787 12.8779 22.0044C12.4638 22.4248 12.1678 22.5005 12 22.5005C11.8322 22.5005 11.5362 22.4248 11.1221 22.0044C10.7028 21.5787 10.2557 20.8857 9.84863 19.9087C9.40181 18.8362 9.03931 17.5068 8.80273 16.0005H15.1973Z" fill="currentColor"/>
<path d="M22.7109 9.50049C22.8977 10.3039 23 11.1402 23 12.0005C23 12.8607 22.8977 13.6971 22.7109 14.5005H16.8906C16.9618 13.6941 17 12.8578 17 12.0005C17 11.1432 16.9618 10.3069 16.8906 9.50049H22.7109Z" fill="currentColor"/>
<path d="M7.10938 9.50049C7.03817 10.3069 7 11.1432 7 12.0005C7 12.8578 7.03817 13.6941 7.10938 14.5005H1.28906C1.10228 13.6971 1 12.8607 1 12.0005C1 11.1402 1.10228 10.3039 1.28906 9.50049H7.10938Z" fill="currentColor"/>
<path d="M15.3838 9.50049C15.4585 10.2998 15.5 11.1363 15.5 12.0005C15.5 12.8647 15.4585 13.7012 15.3838 14.5005H8.61621C8.54148 13.7012 8.5 12.8647 8.5 12.0005C8.5 11.1363 8.54148 10.2998 8.61621 9.50049H15.3838Z" fill="currentColor"/>
<path d="M14.1963 1.22021C17.8871 1.96811 20.9048 4.56441 22.2471 8.00049H16.7139C16.2761 5.02817 15.3637 2.59428 14.1963 1.22021Z" fill="currentColor"/>
<path d="M9.80273 1.22021C8.63552 2.59436 7.72385 5.02852 7.28613 8.00049H1.75293C3.09511 4.5647 6.11236 1.96836 9.80273 1.22021Z" fill="currentColor"/>
<path d="M12 1.50049C12.1678 1.50049 12.4638 1.57617 12.8779 1.99658C13.2972 2.42231 13.7443 3.11525 14.1514 4.09229C14.5982 5.16475 14.9607 6.49415 15.1973 8.00049H8.80273C9.03931 6.49415 9.40181 5.16475 9.84863 4.09229C10.2557 3.11525 10.7028 2.42231 11.1221 1.99658C11.5362 1.57617 11.8322 1.50049 12 1.50049Z" fill="currentColor"/>
</svg>
