<svg   viewBox="0 0 24 24" fill="none" xmlns="http://www.w3.org/2000/svg">
<path fill-rule="evenodd" clip-rule="evenodd" d="M12 1C18.0751 1 23 5.92487 23 12C23 18.0751 18.0751 23 12 23C5.92487 23 1 18.0751 1 12C1 5.92487 5.92487 1 12 1ZM9.78906 16C9.97843 17.2513 10.2514 18.359 10.5811 19.2656C10.9081 20.1651 11.2624 20.7875 11.5801 21.1572C11.8203 21.4367 11.9635 21.4901 12 21.499C12.0365 21.4901 12.1797 21.4367 12.4199 21.1572C12.7376 20.7875 13.0919 20.1651 13.4189 19.2656C13.7486 18.359 14.0216 17.2513 14.2109 16H9.78906ZM3.38281 16C4.59827 18.614 6.96688 20.5804 9.83594 21.249C9.13365 20.003 8.5825 18.1693 8.27441 16H3.38281ZM15.7256 16C15.4175 18.1695 14.8655 20.003 14.1631 21.249C17.0326 20.5806 19.4016 18.6143 20.6172 16H15.7256ZM2.83496 9.5C2.61813 10.2968 2.5 11.1345 2.5 12C2.5 12.8655 2.61813 13.7032 2.83496 14.5H8.10449C8.03661 13.6968 8 12.86 8 12C8 11.14 8.03661 10.3032 8.10449 9.5H2.83496ZM9.61035 9.5C9.53932 10.2953 9.5 11.1324 9.5 12C9.5 12.8676 9.53932 13.7047 9.61035 14.5H14.3896C14.4607 13.7047 14.5 12.8676 14.5 12C14.5 11.1324 14.4607 10.2953 14.3896 9.5H9.61035ZM15.8955 9.5C15.9634 10.3032 16 11.14 16 12C16 12.86 15.9634 13.6968 15.8955 14.5H21.165C21.3819 13.7032 21.5 12.8655 21.5 12C21.5 11.1345 21.3819 10.2968 21.165 9.5H15.8955ZM9.83594 2.75C6.96678 3.41861 4.5983 5.38591 3.38281 8H8.27441C8.58256 5.8303 9.13345 3.99604 9.83594 2.75ZM12 2.50195C11.9631 2.51102 11.8198 2.5639 11.5801 2.84277C11.2624 3.21248 10.9081 3.83491 10.5811 4.73438C10.2514 5.64101 9.97843 6.74875 9.78906 8H14.2109C14.0216 6.74875 13.7486 5.64101 13.4189 4.73438C13.0919 3.83491 12.7376 3.21248 12.4199 2.84277C12.1802 2.5639 12.0369 2.51102 12 2.50195ZM14.1631 2.75C14.8657 3.99604 15.4174 5.83005 15.7256 8H20.6172C19.4016 5.38563 17.0327 3.4184 14.1631 2.75Z" fill="currentColor"/>
</svg>
