<svg fill="none" xmlns="http://www.w3.org/2000/svg" viewBox="0 0 24 24"><path d="M11 17a1 1 0 1 1 2 0 1 1 0 0 1-2 0ZM8.18 8.83a4.002 4.002 0 0 1 4.43-2.79c1.74.26 3.11 1.73 3.35 3.47.228 1.614-.664 2.392-1.526 3.144-.158.138-.315.275-.464.416a3.514 3.514 0 0 0-.345.36l-.015.02a2.758 2.758 0 0 0-.33.48 2.125 2.125 0 0 0-.225.574c-.062.27-.279.496-.555.496h-1c-.276 0-.504-.225-.472-.499.034-.283.095-.532.172-.751l.009-.034a.15.15 0 0 1 .011-.036.187.187 0 0 1 .02-.04.187.187 0 0 0 .02-.04 3.331 3.331 0 0 1 .265-.525l.015-.025c0-.005.003-.008.005-.01s.005-.005.005-.01c.34-.513.797-.864 1.224-1.193.614-.472 1.167-.897 1.226-1.687.08-.97-.62-1.9-1.57-2.1-1.03-.22-1.98.39-2.3 1.28-.14.38-.47.67-.88.67h-.2a.907.907 0 0 1-.87-1.17Z" fill="currentColor"/><path fill-rule="evenodd" clip-rule="evenodd" d="M2 12C2 6.48 6.48 2 12 2s10 4.48 10 10-4.48 10-10 10S2 17.52 2 12Zm2 0c0 4.41 3.59 8 8 8s8-3.59 8-8-3.59-8-8-8-8 3.59-8 8Z" fill="currentColor"/><path d="M11 17a1 1 0 1 1 2 0 1 1 0 0 1-2 0Z" fill="currentColor"/></svg>