<svg fill="none" xmlns="http://www.w3.org/2000/svg" viewBox="0 0 24 24"><path d="M11.204 1.276 7.195 5.284a.948.948 0 0 0 0 1.336l4.009 4.008a.947.947 0 0 0 1.336 0l4.008-4.008a.948.948 0 0 0 0-1.336L12.54 1.276a.948.948 0 0 0-1.336 0ZM5.156 7.324l-4.009 4.008a.947.947 0 0 0 0 1.336l4.009 4.008a.947.947 0 0 0 1.336 0l4.008-4.008a.947.947 0 0 0 0-1.336L6.492 7.324a.948.948 0 0 0-1.336 0Zm8.088 4.008 4.008-4.008a.948.948 0 0 1 1.336 0l4.008 4.008a.947.947 0 0 1 0 1.336l-4.008 4.008a.947.947 0 0 1-1.336 0l-4.008-4.008a.947.947 0 0 1 0-1.336Zm-2.04 2.04L7.195 17.38a.948.948 0 0 0 0 1.336l4.009 4.008a.947.947 0 0 0 1.336 0l4.008-4.008a.948.948 0 0 0 0-1.336l-4.008-4.008a.947.947 0 0 0-1.336 0Z" fill="currentColor"/></svg>