<svg xmlns="http://www.w3.org/2000/svg" viewBox="0 0 24 24"><path d="M19.85 22.525 2.175 4.85a.93.93 0 0 1-.288-.712 1.02 1.02 0 0 1 .313-.713c.2-.2.437-.3.712-.3.275 0 .513.1.713.3L21.275 21.1l-1.425 1.425ZM9 16a.967.967 0 0 1-.713-.287A.968.968 0 0 1 8 15c0-.283.096-.52.287-.713A.967.967 0 0 1 9 14h5.175l2 2H9Zm13-9v9.5c0 .333-.104.583-.313.75a1.072 1.072 0 0 1-1.375 0c-.208-.167-.312-.417-.312-.75V7h-9.5c-.333 0-.583-.104-.75-.313A1.076 1.076 0 0 1 9.5 6c0-.25.083-.48.25-.688.167-.208.417-.312.75-.312H20c.55 0 1.02.196 1.413.588.391.391.587.862.587 1.412ZM4 19c-.55 0-1.02-.196-1.413-.587A1.926 1.926 0 0 1 2 17V7c0-.55.196-1.02.587-1.412A1.926 1.926 0 0 1 4 5h1.175l2 2H4v10h13.175l2 2H4Zm2-9a.968.968 0 0 1-.713-.287A.968.968 0 0 1 5 9c0-.283.096-.52.287-.713A.968.968 0 0 1 6 8a.97.97 0 0 1 .712.287c.192.192.288.43.288.713s-.096.52-.288.713A.968.968 0 0 1 6 10Zm6.7-.3-1.4-1.4c.083-.083.188-.154.313-.213A.906.906 0 0 1 12 8c.283 0 .52.096.713.287.191.192.287.43.287.713 0 .133-.03.262-.088.387-.058.125-.129.23-.212.313Zm2.3.3a.967.967 0 0 1-.713-.287A.967.967 0 0 1 14 9c0-.283.096-.52.287-.713A.967.967 0 0 1 15 8c.283 0 .52.096.713.287.191.192.287.43.287.713s-.096.52-.287.713A.968.968 0 0 1 15 10Zm3 0a.967.967 0 0 1-.712-.287A.967.967 0 0 1 17 9a.97.97 0 0 1 .288-.713A.967.967 0 0 1 18 8a.97.97 0 0 1 .712.287c.192.192.288.43.288.713s-.096.52-.288.713A.968.968 0 0 1 18 10ZM6 13a.967.967 0 0 1-.713-.287A.968.968 0 0 1 5 12c0-.283.096-.52.287-.713A.967.967 0 0 1 6 11a.97.97 0 0 1 .712.287c.192.192.288.43.288.713s-.096.52-.288.713A.967.967 0 0 1 6 13Zm3 0a.967.967 0 0 1-.713-.287A.968.968 0 0 1 8 12c0-.283.096-.52.287-.713A.967.967 0 0 1 9 11a.97.97 0 0 1 .712.287c.192.192.288.43.288.713s-.096.52-.288.713A.967.967 0 0 1 9 13Zm6.7-.3-1.4-1.4c.083-.083.188-.154.313-.213A.907.907 0 0 1 15 11c.283 0 .52.096.713.287.191.192.287.43.287.713 0 .133-.03.262-.088.387-.058.125-.129.23-.212.313Zm2.3.3a.967.967 0 0 1-.712-.287A.968.968 0 0 1 17 12a.97.97 0 0 1 .288-.713A.967.967 0 0 1 18 11a.97.97 0 0 1 .712.287c.192.192.288.43.288.713s-.096.52-.288.713A.968.968 0 0 1 18 13Z"/></svg>