<svg fill="none" xmlns="http://www.w3.org/2000/svg" viewBox="0 0 24 24"><path d="M19.85 21.525 2.175 3.85a.93.93 0 0 1-.287-.712 1.02 1.02 0 0 1 .312-.713c.2-.2.438-.3.713-.3.275 0 .512.1.712.3L21.275 20.1l-1.425 1.425ZM9 15a.967.967 0 0 1-.712-.287A.968.968 0 0 1 8 14a.97.97 0 0 1 .288-.713A.967.967 0 0 1 9 13h5.175l2 2H9Zm13-9v9.5c0 .333-.104.583-.313.75a1.072 1.072 0 0 1-1.375 0c-.208-.167-.312-.417-.312-.75V6h-9.5c-.333 0-.583-.104-.75-.313A1.076 1.076 0 0 1 9.5 5c0-.25.083-.48.25-.688.167-.208.417-.312.75-.312H20c.55 0 1.02.196 1.413.588.391.391.587.862.587 1.412ZM4 18c-.55 0-1.02-.196-1.412-.587A1.926 1.926 0 0 1 2 16V6c0-.55.196-1.02.588-1.412A1.926 1.926 0 0 1 4 4h1.175l2 2H4v10h13.175l2 2H4Zm2-9a.968.968 0 0 1-.712-.287A.968.968 0 0 1 5 8a.97.97 0 0 1 .288-.713A.968.968 0 0 1 6 7c.283 0 .52.096.713.287.191.192.287.43.287.713s-.096.52-.287.713A.968.968 0 0 1 6 9Zm6.7-.3-1.4-1.4c.083-.083.188-.154.313-.212A.907.907 0 0 1 12 7c.283 0 .52.096.713.287.191.192.287.43.287.713 0 .133-.03.262-.088.387-.058.125-.129.23-.212.313ZM15 9a.968.968 0 0 1-.713-.287A.968.968 0 0 1 14 8c0-.283.096-.52.287-.713A.968.968 0 0 1 15 7c.283 0 .52.096.713.287.191.192.287.43.287.713s-.096.52-.287.713A.967.967 0 0 1 15 9Zm3 0a.968.968 0 0 1-.712-.287A.968.968 0 0 1 17 8a.97.97 0 0 1 .288-.713A.968.968 0 0 1 18 7a.97.97 0 0 1 .712.287c.192.192.288.43.288.713s-.096.52-.288.713A.967.967 0 0 1 18 9ZM6 12a.967.967 0 0 1-.712-.287A.968.968 0 0 1 5 11a.97.97 0 0 1 .288-.713A.967.967 0 0 1 6 10c.283 0 .52.096.713.287.191.192.287.43.287.713s-.096.52-.287.713A.967.967 0 0 1 6 12Zm3 0a.967.967 0 0 1-.712-.287A.968.968 0 0 1 8 11a.97.97 0 0 1 .288-.713A.967.967 0 0 1 9 10c.283 0 .52.096.713.287.191.192.287.43.287.713s-.096.52-.287.713A.967.967 0 0 1 9 12Zm6.7-.3-1.4-1.4c.083-.083.188-.154.313-.213A.907.907 0 0 1 15 10c.283 0 .52.096.713.287.191.192.287.43.287.713 0 .133-.03.262-.088.387-.058.125-.129.23-.212.313Zm2.3.3a.968.968 0 0 1-.712-.287A.968.968 0 0 1 17 11a.97.97 0 0 1 .288-.713A.968.968 0 0 1 18 10a.97.97 0 0 1 .712.287c.192.192.288.43.288.713s-.096.52-.288.713A.967.967 0 0 1 18 12Z" fill="currentColor"/></svg>