<svg xmlns="http://www.w3.org/2000/svg" viewBox="0 0 24 24"><path d="M4 19c-.55 0-1.02-.196-1.413-.587A1.926 1.926 0 0 1 2 17V7c0-.55.196-1.02.587-1.412A1.926 1.926 0 0 1 4 5h16c.55 0 1.02.196 1.413.588.391.391.587.862.587 1.412v10c0 .55-.196 1.02-.587 1.413A1.926 1.926 0 0 1 20 19H4Zm0-2h16V7H4v10Zm5-1h6c.283 0 .52-.096.713-.287A.968.968 0 0 0 16 15a.968.968 0 0 0-.287-.713A.968.968 0 0 0 15 14H9a.967.967 0 0 0-.713.287A.968.968 0 0 0 8 15c0 .283.096.52.287.713.192.191.43.287.713.287Zm-3-6c.283 0 .52-.096.713-.287A.968.968 0 0 0 7 9a.968.968 0 0 0-.287-.713A.968.968 0 0 0 6 8a.968.968 0 0 0-.713.287A.968.968 0 0 0 5 9c0 .283.096.52.287.713.192.191.43.287.713.287Zm3 0c.283 0 .52-.096.713-.287A.968.968 0 0 0 10 9a.968.968 0 0 0-.287-.713A.968.968 0 0 0 9 8a.968.968 0 0 0-.713.287A.968.968 0 0 0 8 9c0 .283.096.52.287.713.192.191.43.287.713.287Zm3 0c.283 0 .52-.096.713-.287A.967.967 0 0 0 13 9a.967.967 0 0 0-.287-.713A.968.968 0 0 0 12 8a.968.968 0 0 0-.713.287A.967.967 0 0 0 11 9c0 .283.096.52.287.713.192.191.43.287.713.287Zm3 0c.283 0 .52-.096.713-.287A.967.967 0 0 0 16 9a.967.967 0 0 0-.287-.713A.968.968 0 0 0 15 8a.968.968 0 0 0-.713.287A.967.967 0 0 0 14 9c0 .283.096.52.287.713.192.191.43.287.713.287Zm3 0a.97.97 0 0 0 .712-.287A.967.967 0 0 0 19 9a.967.967 0 0 0-.288-.713A.968.968 0 0 0 18 8a.968.968 0 0 0-.712.287A.967.967 0 0 0 17 9c0 .283.096.52.288.713A.968.968 0 0 0 18 10ZM6 13c.283 0 .52-.096.713-.287A.968.968 0 0 0 7 12a.968.968 0 0 0-.287-.713A.967.967 0 0 0 6 11a.967.967 0 0 0-.713.287A.968.968 0 0 0 5 12c0 .283.096.52.287.713.192.191.43.287.713.287Zm3 0c.283 0 .52-.096.713-.287A.968.968 0 0 0 10 12a.968.968 0 0 0-.287-.713A.967.967 0 0 0 9 11a.967.967 0 0 0-.713.287A.968.968 0 0 0 8 12c0 .283.096.52.287.713.192.191.43.287.713.287Zm3 0c.283 0 .52-.096.713-.287A.968.968 0 0 0 13 12a.968.968 0 0 0-.287-.713A.968.968 0 0 0 12 11a.968.968 0 0 0-.713.287A.968.968 0 0 0 11 12c0 .283.096.52.287.713.192.191.43.287.713.287Zm3 0c.283 0 .52-.096.713-.287A.968.968 0 0 0 16 12a.968.968 0 0 0-.287-.713A.968.968 0 0 0 15 11a.968.968 0 0 0-.713.287A.968.968 0 0 0 14 12c0 .283.096.52.287.713.192.191.43.287.713.287Zm3 0a.97.97 0 0 0 .712-.287A.968.968 0 0 0 19 12a.968.968 0 0 0-.288-.713A.968.968 0 0 0 18 11a.968.968 0 0 0-.712.287A.968.968 0 0 0 17 12c0 .283.096.52.288.713A.968.968 0 0 0 18 13Z"/></svg>