<svg   viewBox="0 0 24 24" fill="none" xmlns="http://www.w3.org/2000/svg">
<path d="M12.707 3.70722C13.0975 3.31672 13.7306 3.31678 14.1211 3.70722L21.8994 11.4855L14.1211 19.2639C13.7306 19.654 13.0975 19.654 12.707 19.2639C12.3166 18.8734 12.3166 18.2393 12.707 17.8488L18.0713 12.4855H5V18.4855C4.99986 19.0377 4.5522 19.4855 4 19.4855C3.4478 19.4855 3.00014 19.0377 3 18.4855V4.48554C3 3.93326 3.44772 3.48554 4 3.48554C4.55228 3.48554 5 3.93326 5 4.48554V10.4855H18.0713L12.707 5.12128C12.3166 4.73079 12.3166 4.09773 12.707 3.70722Z" fill="currentColor"/>
</svg>
