<svg   viewBox="0 0 24 24" fill="none" xmlns="http://www.w3.org/2000/svg">
<path d="M12.1924 19.2636C11.8019 19.6541 11.1689 19.6541 10.7783 19.2636L3 11.4853L10.7783 3.70698C11.1688 3.31686 11.8019 3.3168 12.1924 3.70698C12.5828 4.09748 12.5828 4.73152 12.1924 5.12202L6.82812 10.4853L19.8994 10.4853V4.4853C19.8996 3.93314 20.3472 3.4853 20.8994 3.4853C21.4516 3.4853 21.8993 3.93314 21.8994 4.4853V18.4853C21.8994 19.0376 21.4517 19.4853 20.8994 19.4853C20.3471 19.4853 19.8994 19.0376 19.8994 18.4853V12.4853L6.82812 12.4853L12.1924 17.8496C12.5828 18.2401 12.5828 18.8731 12.1924 19.2636Z" fill="currentColor"/>
</svg>
