<svg viewBox="0 0 24 24" fill="none" xmlns="http://www.w3.org/2000/svg"><path d="M5.91 8h8.863V6c0-.833-.287-1.542-.862-2.125A2.828 2.828 0 0 0 11.818 3c-.82 0-1.518.292-2.092.875-.575.583-.862 1.292-.862 2.125h-1.97c0-1.383.48-2.563 1.44-3.538C9.294 1.487 10.456 1 11.818 1c1.363 0 2.524.488 3.484 1.462.96.975 1.44 2.155 1.44 3.538v2h.986c.541 0 1.005.196 1.39.588.387.391.58.862.58 1.412v10c0 .55-.194 1.02-.58 1.413-.385.391-.849.587-1.39.587H5.909a1.882 1.882 0 0 1-1.39-.587A1.94 1.94 0 0 1 3.938 20V10c0-.55.193-1.02.58-1.412.385-.392.849-.588 1.39-.588zm0 12h11.818V10H5.909v10zm5.908-3c.542 0 1.006-.196 1.392-.587A1.94 1.94 0 0 0 13.787 15c0-.55-.193-1.02-.579-1.412A1.882 1.882 0 0 0 11.82 13c-.542 0-1.006.196-1.392.588A1.94 1.94 0 0 0 9.85 15c0 .55.192 1.02.578 1.413.386.391.85.587 1.391.587z" fill="currentColor"/></svg>