<svg viewBox="0 0 24 24" viewBox="0 0 24 24" fill="none" xmlns="http://www.w3.org/2000/svg">
<path d="M11 3C11.5523 3 12 3.44772 12 4C12 4.55228 11.5523 5 11 5H5L5 19H11C11.5523 19 12 19.4477 12 20C12 20.5523 11.5523 21 11 21H5C3.89543 21 3 20.1046 3 19V5C3 3.89543 3.89543 3 5 3H11Z" fill="currentColor"/>
<path d="M16.5723 13H9.40234C8.85234 13 8.40234 12.55 8.40234 12C8.40234 11.45 8.85234 11 9.40234 11H16.5723L14.7023 9.10999C14.3123 8.71999 14.3123 8.08999 14.7023 7.69999C14.8892 7.51274 15.1428 7.40751 15.4073 7.40751C15.6719 7.40751 15.9255 7.51274 16.1123 7.69999L19.6923 11.3C20.0823 11.69 20.0823 12.32 19.6923 12.71L16.1023 16.3C15.7123 16.69 15.0823 16.69 14.6923 16.3C14.3023 15.91 14.3023 15.27 14.6923 14.88L16.5723 13Z" fill="currentColor"/>
</svg>
