<svg xmlns="http://www.w3.org/2000/svg" viewBox="0 0 24 24"><path d="M12 20.35c2.033-1.867 3.542-3.563 4.525-5.088C17.508 13.738 18 12.383 18 11.2c0-1.817-.58-3.304-1.738-4.462C15.104 5.579 13.683 5 12 5c-1.683 0-3.104.58-4.263 1.737C6.58 7.896 6 9.383 6 11.2c0 1.183.492 2.538 1.475 4.063.983 1.525 2.492 3.22 4.525 5.087Zm0 1.975a2.07 2.07 0 0 1-.7-.125 1.84 1.84 0 0 1-.625-.375A39.112 39.112 0 0 1 7.8 18.9c-.833-.95-1.53-1.87-2.087-2.762-.559-.892-.984-1.75-1.276-2.576C4.146 12.739 4 11.95 4 11.2c0-2.5.804-4.492 2.412-5.975C8.021 3.742 9.883 3 12 3s3.98.742 5.587 2.225C19.197 6.708 20 8.7 20 11.2c0 .75-.146 1.538-.438 2.363-.291.824-.716 1.683-1.274 2.574A21.678 21.678 0 0 1 16.2 18.9a39.112 39.112 0 0 1-2.875 2.925 1.84 1.84 0 0 1-.625.375 2.07 2.07 0 0 1-.7.125ZM12 13c.55 0 1.02-.196 1.412-.588.392-.391.588-.862.588-1.412 0-.55-.196-1.02-.588-1.412A1.926 1.926 0 0 0 12 9c-.55 0-1.02.196-1.412.588A1.926 1.926 0 0 0 10 11c0 .55.196 1.02.588 1.412.391.392.862.588 1.412.588Z"  fill="currentColor" /></svg>