<svg fill="none" xmlns="http://www.w3.org/2000/svg" viewBox="0 0 24 24"><path d="M10.586 21.9a1.93 1.93 0 0 1-1.414.583 1.926 1.926 0 0 1-1.415-.584L2.1 16.244a1.926 1.926 0 0 1-.583-1.415c0-.553.195-1.025.583-1.414L13.414 2.101c.39-.39.86-.584 1.414-.584.554 0 1.026.195 1.415.584L21.9 7.757c.388.39.583.86.583 1.415 0 .553-.195 1.025-.584 1.414L10.586 21.899Zm-1.414-1.415L20.485 9.172l-5.657-5.657-2.12 2.121 2.828 2.828L14.12 9.88l-2.827-2.83-1.414 1.414 2.828 2.829-1.414 1.414L8.464 9.88 7.05 11.293l2.83 2.827-1.415 1.415-2.828-2.829-2.121 2.121 5.657 5.657Z" fill="currentColor"/></svg>