<svg fill="none" viewBox="0 0 24 24" xmlns="http://www.w3.org/2000/svg"><path clip-rule="evenodd" d="m19.95 4.46c-.75-.38-1.58-.8-2.95-.8s-2.2.42-2.95.8l-.08.04c-.614.303-1.136.56-1.97.56-.9 0-1.4-.25-2.05-.6l-.078-.039c-.73-.36-1.54-.761-2.872-.761-1.371 0-2.19.415-2.936.793l-.014.007c-.43.22-.81.41-1.27.52-.45.1-.78.46-.78.91v.07c0 .6.54 1.04 1.12.92.689-.138 1.217-.394 1.702-.628l.128-.062.026-.013c.638-.324 1.155-.587 2.024-.587.88 0 1.4.25 2.05.6l.014.007c.747.378 1.565.793 2.936.793 1.332 0 2.143-.4 2.872-.761l.158-.078c.614-.304 1.136-.561 1.97-.561.9 0 1.4.25 2.05.6l.064.032c.502.251 1.046.524 1.766.668a.94.94 0 0 0 1.12-.92v-.09c0-.46-.34-.82-.79-.92-.46-.1-.83-.28-1.26-.5zm-5.865 8.863c.741-.366 1.586-.783 2.915-.783 1.35 0 2.2.42 2.95.8.43.23.8.42 1.26.52.45.1.79.46.79.92v.09a.94.94 0 0 1 -1.12.92c-.72-.144-1.264-.417-1.766-.668l-.064-.032c-.65-.35-1.15-.6-2.05-.6s-1.4.25-2.05.6l-.078.039c-.73.36-1.54.761-2.872.761-1.371 0-2.19-.415-2.936-.793l-.014-.007c-.65-.35-1.15-.6-2.05-.6s-1.4.25-2.05.6l-.128.062c-.485.235-1.013.49-1.702.628a.93.93 0 0 1 -1.12-.91v-.1c0-.45.33-.81.77-.91.424-.1.775-.272 1.155-.459l.125-.061.078-.039c.73-.36 1.54-.761 2.872-.761 1.371 0 2.19.415 2.936.793l.014.007c.65.35 1.15.6 2.05.6.834 0 1.356-.257 1.97-.56zm-.035 4.467c.75-.38 1.6-.8 2.95-.8s2.2.42 2.95.81c.43.23.8.42 1.26.52.45.1.79.46.79.92v.09a.94.94 0 0 1 -1.12.91c-.72-.144-1.264-.417-1.766-.668l-.064-.032c-.65-.35-1.15-.6-2.05-.6-.868 0-1.398.269-2.046.598l-.018.01c-.746.377-1.565.792-2.936.792s-2.19-.415-2.936-.793l-.014-.007c-.65-.35-1.17-.6-2.05-.6-.868 0-1.386.263-2.024.587l-.026.013c-.51.26-1.07.54-1.81.69-.58.12-1.14-.31-1.14-.91v-.1c0-.45.33-.81.78-.91.46-.11.84-.3 1.27-.52l.014-.007c.747-.378 1.565-.793 2.936-.793s2.19.415 2.936.793l.014.007c.65.35 1.15.6 2.05.6.868 0 1.398-.269 2.046-.598zm.035-8.917c.741-.366 1.586-.783 2.915-.783 1.35 0 2.2.42 2.95.81.43.23.8.42 1.26.52.45.1.79.46.79.92v.09a.94.94 0 0 1 -1.12.91c-.72-.144-1.264-.417-1.766-.668l-.064-.032c-.65-.35-1.15-.6-2.05-.6-.834 0-1.356.258-1.97.56a14.88 14.88 0 0 1 -.158.079c-.73.36-1.54.761-2.872.761-1.371 0-2.19-.415-2.936-.793l-.014-.007c-.65-.35-1.18-.6-2.05-.6-.834 0-1.356.258-1.97.56a16.08 16.08 0 0 1 -.08.04l-.128.062c-.485.235-1.013.49-1.702.628a.93.93 0 0 1 -1.12-.91v-.09c0-.46.34-.82.79-.92.46-.1.83-.29 1.26-.52l.078-.039c.73-.36 1.54-.761 2.872-.761 1.371 0 2.19.415 2.936.793l.014.007c.65.35 1.15.6 2.05.6s1.4-.25 2.05-.6z" fill="currentColor" fill-rule="evenodd"/></svg>