<svg xmlns="http://www.w3.org/2000/svg" viewBox="0 0 24 24"><path d="M4 21a.967.967 0 0 1-.712-.288A.968.968 0 0 1 3 20c0-.283.096-.52.288-.712A.967.967 0 0 1 4 19h14c.283 0 .52.096.712.288.192.191.288.429.288.712s-.096.52-.288.712A.968.968 0 0 1 18 21H4Zm3-4c-1.1 0-2.042-.392-2.825-1.175C3.392 15.042 3 14.1 3 13V5c0-.55.196-1.02.587-1.413A1.926 1.926 0 0 1 5 3h14c.55 0 1.02.196 1.413.587.39.393.587.863.587 1.413v3c0 .55-.196 1.02-.587 1.412A1.926 1.926 0 0 1 19 10h-2v3c0 1.1-.392 2.042-1.175 2.825C15.042 16.608 14.1 17 13 17H7Zm0-2h6c.55 0 1.02-.196 1.412-.588.392-.391.588-.862.588-1.412V5H5v8c0 .55.196 1.02.588 1.412.391.392.862.588 1.412.588Zm10-7h2V5h-2v3ZM7 15H5h10-8Z"  fill="currentColor" /></svg>