<svg xmlns="http://www.w3.org/2000/svg" viewBox="0 0 24 24"><path fill="currentColor" fill-rule="evenodd" clip-rule="evenodd" d="M3 20.046C3 21.401 4.03 22.5 5.627 22.5h.157c1.927 0 2.956-1.447 2.956-3.15V8.595c0-.193.145-.381.322-.42l8.302-1.847c.178-.038.322.088.322.28v7.2c-.018.603-.119.94-.31 1.206a1.172 1.172 0 0 1-.86.475h-.957c-1.27 0-2.3 1.098-2.3 2.453 0 1.355 1.03 2.454 2.628 2.454h.157c1.927 0 2.956-1.447 2.956-3.15V2.076c0-.385-.286-.638-.644-.564L8.07 3.699c-.356.074-.645.446-.645.838v11.376c-.018.602-.118.939-.31 1.205a1.172 1.172 0 0 1-.86.475H5.3c-1.271 0-2.3 1.097-2.3 2.453Z"/></svg>