<svg fill="none" xmlns="http://www.w3.org/2000/svg" viewBox="0 0 24 24"><g clip-path="url(#Notification off__a)" fill="currentColor"><path fill-rule="evenodd" clip-rule="evenodd" d="M5.27 3.49 20 18.69l1 1.03-1.27 1.27-2-2H4v-1l2-2v-5c0-1.26.28-2.43.8-3.42v-.01L4 4.76l1.27-1.27ZM14 20c0 1.11-.89 2-2 2-1.11 0-2-.89-2-2h4ZM9.754 4.916a.022.022 0 0 1 .007-.005l.009-.001h.01c.1-.04.2-.08.3-.11l.09-.028c.104-.034.214-.069.33-.092V4c0-.83.67-1.5 1.5-1.5s1.5.67 1.5 1.5v.68"/><path d="M18 14.68V11c0-3.08-1.64-5.64-4.5-6.32V4c0-.83-.67-1.5-1.5-1.5s-1.5.67-1.5 1.5v.68a3.036 3.036 0 0 0-.33.092l-.09.028c-.1.03-.2.07-.3.11h-.019a.022.022 0 0 0-.007.006l-.004.004c-.23.09-.46.2-.68.31 0 0-.01 0-.01.01L18 14.68Z"/></g><defs><clipPath id="Notification off__a"><path fill="#fff" d="M0 0h24v24H0z"/></clipPath></defs></svg>