<svg xmlns="http://www.w3.org/2000/svg" viewBox="0 0 24 24"><path d="M16 19c-.55 0-1.02-.196-1.412-.587A1.926 1.926 0 0 1 14 17V7c0-.55.196-1.02.588-1.412A1.926 1.926 0 0 1 16 5c.55 0 1.02.196 1.413.588.391.391.587.862.587 1.412v10c0 .55-.196 1.02-.587 1.413A1.926 1.926 0 0 1 16 19Zm-8 0c-.55 0-1.02-.196-1.412-.587A1.926 1.926 0 0 1 6 17V7c0-.55.196-1.02.588-1.412A1.926 1.926 0 0 1 8 5c.55 0 1.02.196 1.412.588C9.804 5.979 10 6.45 10 7v10c0 .55-.196 1.02-.588 1.413A1.926 1.926 0 0 1 8 19Z" fill="currentColor" /></svg>