<svg viewBox="0 0 24 24" xmlns="http://www.w3.org/2000/svg"><path d="m10.65 15.75 4.875-3.125a.705.705 0 0 0 .35-.625.705.705 0 0 0 -.35-.625l-4.875-3.125a.688.688 0 0 0 -.763-.037.705.705 0 0 0 -.387.662v6.25c0 .3.13.52.387.662.259.142.513.13.763-.037zm1.35 6.25a9.738 9.738 0 0 1 -3.9-.788 10.099 10.099 0 0 1 -3.175-2.137c-.9-.9-1.612-1.958-2.137-3.175a9.738 9.738 0 0 1 -.788-3.9 9.74 9.74 0 0 1 .788-3.9 10.099 10.099 0 0 1 2.137-3.175c.9-.9 1.958-1.612 3.175-2.137a9.738 9.738 0 0 1 3.9-.788 9.74 9.74 0 0 1 3.9.788 10.098 10.098 0 0 1 3.175 2.137c.9.9 1.613 1.958 2.137 3.175a9.738 9.738 0 0 1 .788 3.9 9.738 9.738 0 0 1 -.788 3.9 10.098 10.098 0 0 1 -2.137 3.175c-.9.9-1.958 1.613-3.175 2.137a9.738 9.738 0 0 1 -3.9.788zm0-2c2.233 0 4.125-.775 5.675-2.325s2.325-3.442 2.325-5.675-.775-4.125-2.325-5.675-3.442-2.325-5.675-2.325-4.125.775-5.675 2.325-2.325 3.442-2.325 5.675.775 4.125 2.325 5.675 3.442 2.325 5.675 2.325z" fill="currentColor"/></svg>