<svg xmlns="http://www.w3.org/2000/svg" viewBox="0 0 24 24"><path d="M9.526 4c.568 0 1.028.482 1.028 1.076v7.793c0 1.078-1.027 1.825-1.992 1.45l-.74-.288 2.444 3.488a.76.76 0 0 0 .622.33h6.285c.426 0 .77-.361.77-.807v-4.706c0-.445-.344-.807-.77-.807h-2.699c-.568 0-1.028-.481-1.028-1.075s.46-1.076 1.028-1.076h2.699c1.561 0 2.827 1.325 2.827 2.958v4.706C20 18.676 18.734 20 17.173 20h-6.285c-.9 0-1.748-.449-2.28-1.209l-4.409-6.29c-.14-.2-.204-.434-.198-.664a1.118 1.118 0 0 1 .064-.413c.197-.557.79-.84 1.321-.634L8.498 12V5.075c0-.594.46-1.076 1.028-1.076Z"  fill="currentColor" /></svg>