<svg viewBox="0 0 24 24" xmlns="http://www.w3.org/2000/svg"><path clip-rule="evenodd" d="m19.918 5.176c.865 2.051.948 3.975.184 4.297a.578.578 0 0 1 -.102.032v8.936a.5.5 0 0 1 .447.34l.22.66h.833a.5.5 0 0 1 .5.5v1a.5.5 0 0 1 -.5.5h-19a.5.5 0 0 1 -.5-.5v-1a.5.5 0 0 1 .5-.5h.778l.731-2.635a.5.5 0 0 1 .482-.366h.509v-5.29a1 1 0 0 1 -.146-1.948l12.023-3.589c-.595-1.76-.579-3.284.093-3.567.763-.322 2.083 1.08 2.948 3.13zm-.918 13.265a.5.5 0 0 0 -.447.34l-.22.66h-3.409l-1.868-10.6 4.644-1.387c.413.723.87 1.302 1.299 1.66v9.327zm-6.584-7.467.259 1.466h-1.725zm-.212-1.203-.113-.642-1.214.362-.344 1.952zm-2.024 3.67h1.356l-1.646 1.643.29-1.645zm2.686.083-2.916 2.916h3.43zm-3.39 3.916-.354 2h4.787l-.353-2zm.329-7.629-1.698 9.63h-.385l-.731-2.635a.5.5 0 0 0 -.482-.366h-.509v-5.493z" fill-rule="evenodd"  fill="currentColor" /></svg>