<svg xmlns="http://www.w3.org/2000/svg" viewBox="0 0 24 24"><path fill-rule="evenodd" clip-rule="evenodd" d="M12.498 2.283A.284.284 0 0 0 12.213 2h-.426a.284.284 0 0 0-.285.283v1.061h-.45a.284.284 0 0 0-.284.283v.495H9.82a.284.284 0 0 0-.284.283v.543c0 .156.127.283.284.283h.513l-1.585 5.124a.368.368 0 0 0 .703.215l.528-1.709 2.76 1.46-3.083 1.632a.365.365 0 0 0-.152.495.369.369 0 0 0 .498.15l3.688-1.95a.366.366 0 0 0 .195-.327.366.366 0 0 0-.195-.326l-3.084-1.631 2.826-1.495.256.827a.368.368 0 0 0 .702-.215l-.696-2.25h.486a.284.284 0 0 0 .284-.283v-.543a.284.284 0 0 0-.284-.283h-.948v-.495a.284.284 0 0 0-.284-.283h-.45V2.283Zm.427 2.948h-1.823l-.755 2.441 2.864-1.515-.286-.926Z"/><path d="M19.583 8.509c.157 0 .284.127.284.283v4.952h.735c.157 0 .284.127.284.283v.85a.284.284 0 0 1-.284.282h-1.777v.944a.284.284 0 0 1-.285.283h-.971v2.688a.284.284 0 0 1-.285.283h-1.493a.284.284 0 0 1-.284-.283v-2.688h-.971a.284.284 0 0 1-.285-.283v-.944H9.796v.944a.284.284 0 0 1-.284.283H8.54v2.688a.284.284 0 0 1-.284.283H6.763a.284.284 0 0 1-.284-.283v-2.688h-.972a.284.284 0 0 1-.284-.283v-.944H3.422a.284.284 0 0 1-.284-.283v-.849c0-.156.127-.283.284-.283h1.682V12.07c0-.156.128-.283.285-.283h1.05L2.352 7.32a.47.47 0 0 1 .026-.662l.085-.079a.476.476 0 0 1 .63-.015l5.778 4.87a.47.47 0 0 1 .168.36v.123c0 .03-.003.059-.008.087a.282.282 0 0 1 .008.066v1.674h5.403V8.792c0-.156.127-.283.284-.283h4.858Zm-1.499 12.488a4.285 4.285 0 0 0-2.605.052l-1.786.61a5.237 5.237 0 0 1-3.386 0l-1.785-.61a4.285 4.285 0 0 0-2.606-.052l-3.306.983a.471.471 0 1 1-.271-.904l3.305-.983a5.237 5.237 0 0 1 3.185.064l1.786.61a4.284 4.284 0 0 0 2.77 0l1.786-.61a5.237 5.237 0 0 1 3.185-.064l3.306.983a.471.471 0 1 1-.272.904l-3.306-.983Z"  fill="currentColor" /></svg>