<svg xmlns="http://www.w3.org/2000/svg" viewBox="0 0 24 24"><path fill-rule="evenodd" clip-rule="evenodd" d="M9.935 3c0-.552.463-1 1.033-1h2.064c.57 0 1.032.448 1.032 1s-.462 1-1.032 1h-.258v1.25h2.128c.59 0 1.105.388 1.25.943l3.824 14.623a.749.749 0 0 1-.56.911.776.776 0 0 1-.94-.543l-.663-2.53a.778.778 0 0 1-.103-.068l-4.936-3.826v6.49c0 .414-.346.75-.774.75a.762.762 0 0 1-.774-.75v-6.49L6.29 18.587a.792.792 0 0 1-.103.068l-.662 2.53a.776.776 0 0 1-.94.543.749.749 0 0 1-.561-.911L7.848 6.193c.145-.555.66-.943 1.25-.943h2.128V4h-.258c-.57 0-1.033-.448-1.033-1ZM6.813 16.26l3.948-3.06-2.618-2.029-1.33 5.089ZM8.56 9.574l2.665 2.066V6.75H9.299l-.738 2.824Zm4.213 2.066 2.665-2.066L14.7 6.75h-1.927v4.89Zm3.083-.469L13.239 13.2l3.948 3.06-1.33-5.089Z"  fill="currentColor" /></svg>