<svg fill="none" xmlns="http://www.w3.org/2000/svg" viewBox="0 0 24 24"><path d="M13.812 2.842c.17-.3 0-.7-.35-.74a10.149 10.149 0 0 0-7.449 1.862c-.19.15-.25.43-.12.65l3.013 5.228c.19.33.671.33.871 0l4.035-7ZM21.31 8.32a10.031 10.031 0 0 0-5.356-5.508c-.23-.1-.5 0-.63.22L12.31 8.25c-.19.32.05.74.44.74h8.09c.35 0 .6-.35.47-.67Zm.07 1.672h-6.207c-.38 0-.63.42-.43.751l4.264 7.4c.17.301.6.351.821.08 1.742-2.182 2.483-5.036 2.052-7.8a.498.498 0 0 0-.5-.43ZM2.119 13.577c-.43-2.774.32-5.608 2.052-7.8.21-.27.64-.22.82.08l4.266 7.39c.2.33-.05.75-.43.75H2.618c-.25 0-.47-.18-.5-.42Zm.571 2.093a10.03 10.03 0 0 0 5.355 5.508c.23.1.501 0 .631-.22l3.013-5.218a.502.502 0 0 0-.43-.75H3.16c-.35.01-.6.36-.47.68Zm15.286 4.366a10.146 10.146 0 0 1-7.448 1.863c-.34-.05-.52-.451-.35-.751l4.044-7c.2-.33.68-.33.871 0l3.013 5.227c.13.22.07.51-.13.661Z" fill="currentColor"/></svg>