<svg fill="none" xmlns="http://www.w3.org/2000/svg" viewBox="0 0 24 24"><path d="M13.461 2.101c.35.04.52.441.35.741l-1.255 2.18A6.974 6.974 0 0 0 7.21 6.9L5.893 4.615c-.13-.22-.07-.5.12-.651A10.148 10.148 0 0 1 13.461 2.1ZM6.242 8.024l-1.25-2.167c-.18-.3-.61-.35-.82-.08a10.106 10.106 0 0 0-2.053 7.8c.03.24.25.42.5.42h2.672A6.976 6.976 0 0 1 5 12a6.96 6.96 0 0 1 1.242-3.976Zm-.571 6.966h-2.51c-.351.01-.602.36-.471.68a10.03 10.03 0 0 0 5.355 5.508c.23.1.501 0 .631-.22l1.302-2.256a7.038 7.038 0 0 1-4.307-3.713Zm5.761 3.987-1.254 2.17c-.17.301.01.702.35.752 2.623.37 5.306-.28 7.448-1.863.2-.15.26-.44.13-.66l-1.313-2.28a6.974 6.974 0 0 1-5.361 1.881Zm6.326-3.001 1.25 2.168c.17.3.6.35.82.08 1.742-2.183 2.483-5.037 2.052-7.801a.498.498 0 0 0-.5-.43h-2.674c.191.636.294 1.31.294 2.007a6.96 6.96 0 0 1-1.242 3.976Zm.562-6.986h2.52c.35 0 .6-.35.47-.67a10.031 10.031 0 0 0-5.356-5.508c-.23-.1-.5 0-.63.22l-1.308 2.264a7.037 7.037 0 0 1 4.303 3.695Z" fill="currentColor"/></svg>