<svg xmlns="http://www.w3.org/2000/svg" viewBox="0 0 24 24"><path fill="currentColor" d="M9.476 18.607a1 1 0 0 1 1.18-.758l.016.003c.026.006.053.01.08.015.191.04.386.074.585.096a6.201 6.201 0 0 0 .672.037.95.95 0 0 1 .093.004h.01a.982.982 0 0 1 .095.015l.012.004a.99.99 0 0 1 .26.094l.017.01c.05.028.099.06.144.097l.01.008a.998.998 0 0 1-.222 1.675.996.996 0 0 1-.417.094 8.058 8.058 0 0 1-1.78-.197 1 1 0 0 1-.755-1.197Zm-3.931-3.72a1 1 0 0 1 1.26.16.985.985 0 0 1 .129.163 6.051 6.051 0 0 0 .83 1.039.996.996 0 0 1 .24.39 1 1 0 0 1-1.651 1.036 8.049 8.049 0 0 1-.91-1.095 8.123 8.123 0 0 1-.21-.313 1.001 1.001 0 0 1 .312-1.38ZM12.394 4.01a8 8 0 0 1 2.668.6l.359.159c.83.392 1.586.924 2.236 1.574l.27.285a7.997 7.997 0 0 1 1.464 2.31l.141.368A7.97 7.97 0 0 1 20 12h1.544c.389 0 .599.472.346.776l-2.545 3.06a.446.446 0 0 1-.69 0l-2.545-3.06c-.253-.304-.043-.776.346-.776H18c0-.69-.119-1.373-.35-2.02l-.107-.276a6.002 6.002 0 0 0-1.097-1.733l-.204-.213a5.999 5.999 0 0 0-1.677-1.182l-.27-.119a6 6 0 0 0-2-.45L12 6l-.102-.005A1 1 0 0 1 12 4l.394.01Zm-8.132 6.03a1 1 0 0 1 1.89.627c-.1.438-.15.887-.15 1.337a.996.996 0 0 1-.04.27A1 1 0 0 1 4 12.01a8.082 8.082 0 0 1 .197-1.778l.029-.1a1.01 1.01 0 0 1 .036-.092Zm3.472-4.808a1 1 0 0 1 1.068 1.692c-.38.24-.733.522-1.051.84A1 1 0 0 1 6.335 6.35a8.051 8.051 0 0 1 1.4-1.119Z"/></svg>