<svg fill="none" xmlns="http://www.w3.org/2000/svg" viewBox="0 0 24 24"><path d="m14.95 4.452-.17 1.35a.25.25 0 0 1-.38.181l-3.983-2.472a.25.25 0 0 1 .02-.436l4.58-2.293a.25.25 0 0 1 .36.254l-.174 1.394c.716.219 1.417.52 2.091.91A9.958 9.958 0 0 1 20.956 7a10.044 10.044 0 0 1 1.34 5 1 1 0 0 1-2 .001 8.043 8.043 0 0 0-1.073-4.002 7.958 7.958 0 0 0-2.929-2.927 8.047 8.047 0 0 0-1.345-.62Zm2.324 13.812-1.092-.921a.25.25 0 0 1 .055-.417l4.243-1.995a.25.25 0 0 1 .354.255l-.57 5.09a.25.25 0 0 1-.41.164l-1.026-.866a10.044 10.044 0 0 1-6.532 2.427 9.959 9.959 0 0 1-5.002-1.34 1 1 0 0 1 1-1.733 7.959 7.959 0 0 0 4 1.074 8.044 8.044 0 0 0 4.98-1.738ZM5.366 8a7.959 7.959 0 0 0-.979 5.22l1.095-.461a.25.25 0 0 1 .347.238l-.15 4.686a.25.25 0 0 1-.387.2l-4.277-2.82a.25.25 0 0 1 .041-.439l1.443-.608A9.958 9.958 0 0 1 3.634 7a9.959 9.959 0 0 1 3.66-3.662 1 1 0 1 1 .999 1.733A7.959 7.959 0 0 0 5.366 8Z" fill="currentColor"/></svg>