<svg   viewBox="0 0 24 24" fill="none" xmlns="http://www.w3.org/2000/svg">
<path d="M9.24995 21.9873L8.84995 18.7873C8.63328 18.704 8.42912 18.604 8.23745 18.4873C8.04578 18.3706 7.85828 18.2456 7.67495 18.1123L4.69995 19.3623L1.94995 14.6123L4.52495 12.6623C4.50828 12.5456 4.49995 12.4331 4.49995 12.3248V11.6498C4.49995 11.5415 4.50828 11.429 4.52495 11.3123L1.94995 9.3623L4.69995 4.6123L7.67495 5.8623C7.85828 5.72897 8.04995 5.60397 8.24995 5.4873C8.44995 5.37064 8.64995 5.27064 8.84995 5.1873L9.24995 1.9873H14.75L15.15 5.1873C15.3666 5.27064 15.5708 5.37064 15.7625 5.4873C15.9541 5.60397 16.1416 5.72897 16.325 5.8623L19.3 4.6123L22.05 9.3623L19.475 11.3123C19.4916 11.429 19.5 11.5415 19.5 11.6498V12.3248C19.5 12.4331 19.4833 12.5456 19.45 12.6623L22.025 14.6123L19.275 19.3623L16.325 18.1123C16.1416 18.2456 15.95 18.3706 15.75 18.4873C15.55 18.604 15.35 18.704 15.15 18.7873L14.75 21.9873H9.24995ZM11 19.9873H12.975L13.325 17.3373C13.8416 17.204 14.3208 17.0081 14.7625 16.7498C15.2041 16.4915 15.6083 16.179 15.975 15.8123L18.45 16.8373L19.425 15.1373L17.275 13.5123C17.3583 13.279 17.4166 13.0331 17.45 12.7748C17.4833 12.5165 17.5 12.254 17.5 11.9873C17.5 11.7206 17.4833 11.4581 17.45 11.1998C17.4166 10.9415 17.3583 10.6956 17.275 10.4623L19.425 8.8373L18.45 7.1373L15.975 8.1873C15.6083 7.80397 15.2041 7.48314 14.7625 7.2248C14.3208 6.96647 13.8416 6.77064 13.325 6.6373L13 3.9873H11.025L10.675 6.6373C10.1583 6.77064 9.67912 6.96647 9.23745 7.2248C8.79578 7.48314 8.39162 7.79564 8.02495 8.1623L5.54995 7.1373L4.57495 8.8373L6.72495 10.4373C6.64162 10.6873 6.58328 10.9373 6.54995 11.1873C6.51662 11.4373 6.49995 11.704 6.49995 11.9873C6.49995 12.254 6.51662 12.5123 6.54995 12.7623C6.58328 13.0123 6.64162 13.2623 6.72495 13.5123L4.57495 15.1373L5.54995 16.8373L8.02495 15.7873C8.39162 16.1706 8.79578 16.4915 9.23745 16.7498C9.67912 17.0081 10.1583 17.204 10.675 17.3373L11 19.9873ZM12.05 15.4873C13.0166 15.4873 13.8416 15.1456 14.525 14.4623C15.2083 13.779 15.55 12.954 15.55 11.9873C15.55 11.0206 15.2083 10.1956 14.525 9.5123C13.8416 8.82897 13.0166 8.4873 12.05 8.4873C11.0666 8.4873 10.2375 8.82897 9.56245 9.5123C8.88745 10.1956 8.54995 11.0206 8.54995 11.9873C8.54995 12.954 8.88745 13.779 9.56245 14.4623C10.2375 15.1456 11.0666 15.4873 12.05 15.4873Z" fill="currentColor"/>
</svg>
