<svg xmlns="http://www.w3.org/2000/svg" viewBox="0 0 24 24"><path d="M18 21a2.893 2.893 0 0 1-2.125-.875A2.893 2.893 0 0 1 15 18c0-.1.025-.333.075-.7L8.05 13.2A2.966 2.966 0 0 1 6 14a2.893 2.893 0 0 1-2.125-.875A2.893 2.893 0 0 1 3 11c0-.833.292-1.542.875-2.125A2.893 2.893 0 0 1 6 8a2.97 2.97 0 0 1 2.05.8l7.025-4.1a1.706 1.706 0 0 1-.063-.338A4.779 4.779 0 0 1 15 4c0-.833.292-1.542.875-2.125A2.893 2.893 0 0 1 18 1c.833 0 1.542.292 2.125.875S21 3.167 21 4s-.292 1.542-.875 2.125A2.893 2.893 0 0 1 18 7a2.97 2.97 0 0 1-2.05-.8l-7.025 4.1c.033.117.054.23.063.337a4.993 4.993 0 0 1 0 .726c-.009.108-.03.22-.063.337l7.025 4.1A2.967 2.967 0 0 1 18 15c.833 0 1.542.292 2.125.875S21 17.167 21 18s-.292 1.542-.875 2.125A2.893 2.893 0 0 1 18 21Zm0-2c.283 0 .52-.096.712-.288A.968.968 0 0 0 19 18a.968.968 0 0 0-.288-.712A.968.968 0 0 0 18 17a.968.968 0 0 0-.712.288A.968.968 0 0 0 17 18c0 .283.096.52.288.712A.965.965 0 0 0 18 19ZM6 12c.283 0 .52-.096.713-.287A.968.968 0 0 0 7 11a.968.968 0 0 0-.287-.713A.967.967 0 0 0 6 10a.967.967 0 0 0-.713.287A.968.968 0 0 0 5 11c0 .283.096.52.287.713.192.191.43.287.713.287Zm12-7a.97.97 0 0 0 .712-.287A.967.967 0 0 0 19 4a.967.967 0 0 0-.288-.712A.968.968 0 0 0 18 3a.968.968 0 0 0-.712.288A.967.967 0 0 0 17 4c0 .283.096.52.288.713A.968.968 0 0 0 18 5Z"  fill="currentColor" /></svg>