<svg fill="none" xmlns="http://www.w3.org/2000/svg" viewBox="0 0 24 24"><path fill-rule="evenodd" clip-rule="evenodd" d="M2 12C2 6.48 6.48 2 12 2s10 4.48 10 10-4.48 10-10 10S2 17.52 2 12Zm5.191 6.389A7.993 7.993 0 0 1 4.41 9.471l3.958 3.609-1.177 5.309Zm.39.277A7.953 7.953 0 0 0 12 20a7.953 7.953 0 0 0 4.418-1.334L12 15.859l-4.418 2.807Zm9.228-.277a7.993 7.993 0 0 0 2.781-8.918l-3.958 3.609 1.177 5.309Zm2.626-9.343c-1.13-2.833-3.836-4.875-7.028-5.036l1.841 4.573 5.187.463ZM11.593 4.01c-3.192.161-5.897 2.203-7.028 5.036l5.187-.463 1.841-4.573Z" fill="currentColor"/></svg>