<svg viewBox="0 0 24 24" xmlns="http://www.w3.org/2000/svg"><path fill-rule="evenodd" clip-rule="evenodd" d="M7 22a1 1 0 0 1-1-1v-3.25a5.743 5.743 0 0 1-1.713-1.137A7.147 7.147 0 0 1 3.037 15c-.341-.6-.6-1.242-.774-1.925A8.332 8.332 0 0 1 2 11c0-2.633.933-4.792 2.8-6.475C6.667 2.842 9.067 2 12 2s5.333.842 7.2 2.525C21.067 6.208 22 8.367 22 11c0 .7-.087 1.392-.262 2.075A7.762 7.762 0 0 1 20.962 15a7.147 7.147 0 0 1-1.25 1.613A5.744 5.744 0 0 1 18 17.75V21a1 1 0 0 1-1 1h-2v-2a1 1 0 1 0-2 0v2h-2v-2a1 1 0 1 0-2 0v2H7zm1-9a2 2 0 1 0 0-4 2 2 0 0 0 0 4zm8 0a2 2 0 1 0 0-4 2 2 0 0 0 0 4zm-3.776-.553l1.595 3.191a.25.25 0 0 1-.224.362h-3.19a.25.25 0 0 1-.224-.362l1.595-3.19a.25.25 0 0 1 .448 0z" fill="currentColor"/></svg>