<svg viewbox="0 0 24 24" fill="none" xmlns="http://www.w3.org/2000/svg"><path d="M7 22a1 1 0 0 1-1-1v-3.25a5.743 5.743 0 0 1-1.713-1.137A7.147 7.147 0 0 1 3.037 15c-.341-.6-.6-1.242-.774-1.925A8.332 8.332 0 0 1 2 11c0-2.633.933-4.792 2.8-6.475C6.667 2.842 9.067 2 12 2s5.333.842 7.2 2.525C21.067 6.208 22 8.367 22 11c0 .7-.087 1.392-.262 2.075A7.762 7.762 0 0 1 20.962 15a7.147 7.147 0 0 1-1.25 1.613A5.744 5.744 0 0 1 18 17.75V21a1 1 0 0 1-1 1H7zm1-2.5a.5.5 0 0 0 1 0V19a1 1 0 1 1 2 0 1 1 0 1 0 2 0 1 1 0 1 1 2 0v.5a.5.5 0 0 0 1 0v-2.26c0-.463.324-.855.753-1.029.336-.136.647-.306.934-.511.492-.35.909-.767 1.25-1.25a5.725 5.725 0 0 0 .788-1.6c.183-.583.275-1.2.275-1.85 0-2.083-.738-3.77-2.212-5.063C16.312 4.646 14.383 4 12 4c-2.383 0-4.313.646-5.787 1.938C4.737 7.229 4 8.916 4 11c0 .65.092 1.267.275 1.85.183.583.446 1.117.787 1.6.342.483.763.9 1.263 1.25.29.203.6.372.928.508.427.176.747.567.747 1.028V19.5zm2.68-4.862a.25.25 0 0 0 .225.362h2.19a.25.25 0 0 0 .224-.362l-1.095-2.19a.25.25 0 0 0-.448 0l-1.095 2.19zM8.5 13c.55 0 1.02-.196 1.412-.588.392-.391.588-.862.588-1.412 0-.55-.196-1.02-.588-1.412A1.926 1.926 0 0 0 8.5 9c-.55 0-1.02.196-1.412.588A1.926 1.926 0 0 0 6.5 11c0 .55.196 1.02.588 1.412.391.392.862.588 1.412.588zm7 0c.55 0 1.02-.196 1.413-.588.391-.391.587-.862.587-1.412 0-.55-.196-1.02-.587-1.412A1.926 1.926 0 0 0 15.5 9c-.55 0-1.02.196-1.412.588A1.926 1.926 0 0 0 13.5 11c0 .55.196 1.02.588 1.412.391.392.862.588 1.412.588z" fill="currentColor"/></svg>