<svg viewBox="0 0 24 24" xmlns="http://www.w3.org/2000/svg"><path d="m9 16h6c.283 0 .52-.096.713-.287a.968.968 0 0 0 .287-.713v-6a.967.967 0 0 0 -.287-.713.968.968 0 0 0 -.713-.287h-6a.968.968 0 0 0 -.713.287.968.968 0 0 0 -.287.713v6c0 .283.096.52.287.713.192.191.43.287.713.287zm3 6a9.738 9.738 0 0 1 -3.9-.788 10.099 10.099 0 0 1 -3.175-2.137c-.9-.9-1.612-1.958-2.137-3.175a9.738 9.738 0 0 1 -.788-3.9 9.74 9.74 0 0 1 .788-3.9 10.099 10.099 0 0 1 2.137-3.175c.9-.9 1.958-1.612 3.175-2.137a9.738 9.738 0 0 1 3.9-.788 9.74 9.74 0 0 1 3.9.788 10.098 10.098 0 0 1 3.175 2.137c.9.9 1.613 1.958 2.137 3.175a9.738 9.738 0 0 1 .788 3.9 9.738 9.738 0 0 1 -.788 3.9 10.098 10.098 0 0 1 -2.137 3.175c-.9.9-1.958 1.613-3.175 2.137a9.738 9.738 0 0 1 -3.9.788zm0-2c2.233 0 4.125-.775 5.675-2.325s2.325-3.442 2.325-5.675-.775-4.125-2.325-5.675-3.442-2.325-5.675-2.325-4.125.775-5.675 2.325-2.325 3.442-2.325 5.675.775 4.125 2.325 5.675 3.442 2.325 5.675 2.325z" fill="currentColor"/></svg>