<svg viewBox="0 0 24 24" fill="none" xmlns="http://www.w3.org/2000/svg"><path d="M17.091 12.99c.26 0 .49-.1.69-.3.2-.2.3-.43.3-.69 0-.26-.1-.49-.3-.69-.2-.2-.43-.3-.69-.3H6.91c-.26 0-.49.1-.69.3-.2.2-.3.43-.3.69 0 .26.1.49.3.69.2.2.43.3.69.3H17.09zm1.98 6.081a9.738 9.738 0 0 1-3.315 2.2c-1.231.49-2.483.735-3.756.735-1.273 0-2.525-.245-3.757-.734a9.737 9.737 0 0 1-3.314-2.2 9.737 9.737 0 0 1-2.201-3.315A10.098 10.098 0 0 1 1.994 12c0-1.273.245-2.525.734-3.757a9.737 9.737 0 0 1 2.2-3.314 9.737 9.737 0 0 1 3.315-2.2A10.099 10.099 0 0 1 12 1.993a10.1 10.1 0 0 1 3.757.734 9.738 9.738 0 0 1 3.314 2.2 9.737 9.737 0 0 1 2.2 3.315c.49 1.232.735 2.484.735 3.757 0 1.273-.245 2.525-.734 3.757a9.737 9.737 0 0 1-2.201 3.314z" fill="currentColor"/></svg>