<svg xmlns="http://www.w3.org/2000/svg" fill="none" viewBox="0 0 24 24"><path fill="currentColor" d="M10 13a1 1 0 1 1 0 2 1 1 0 0 1 0-2ZM14 13a1 1 0 1 1 0 2 1 1 0 0 1 0-2ZM18 13a1 1 0 1 1 0 2 1 1 0 0 1 0-2ZM12 10a1 1 0 1 1 0 2 1 1 0 0 1 0-2ZM16 10a1 1 0 1 1 0 2 1 1 0 0 1 0-2Z" style="fill:#000;fill-opacity:1"/><path fill="#000" fill-rule="evenodd" d="M13.818 6C18.278 6 22 9.848 22 14.727 22 16.534 20.778 18 19.273 18H4.728C3.222 18 2 16.534 2 14.727 2 9.848 5.722 6 10.182 6c.623 0 1.232.076 1.818.22A7.555 7.555 0 0 1 13.818 6Zm-5.8 2.57c-2.479.926-4.2 3.384-4.2 6.157 0 .605.406 1.091.91 1.091.503 0 .909-.486.909-1.09 0-2.42.917-4.589 2.38-6.159Zm5.8-.388c-3.576 0-6.364 3.001-6.364 6.545 0 .383-.056.75-.157 1.091h11.976c.503 0 .909-.486.909-1.09 0-3.545-2.788-6.546-6.364-6.546Z" clip-rule="evenodd"/></svg>