<svg  viewBox="0 0 24 24" fill="none" xmlns="http://www.w3.org/2000/svg">
<path fill-rule="evenodd" clip-rule="evenodd" d="M13.8182 6C18.2777 6 22 9.84743 22 14.7273C22 16.534 20.7783 18 19.2727 18H4.72727C3.22169 18 2 16.534 2 14.7273C2 9.84743 5.72235 6 10.1818 6C10.8054 6 11.4139 6.07541 12 6.22053C12.5861 6.07541 13.1946 6 13.8182 6ZM8.0174 8.5696C5.53916 9.49611 3.81818 11.9539 3.81818 14.7273C3.81818 15.3315 4.22377 15.8182 4.72727 15.8182C5.23078 15.8182 5.63636 15.3315 5.63636 14.7273C5.63636 12.3075 6.5539 10.1394 8.0174 8.5696ZM13.8182 8.18182C10.2422 8.18182 7.45455 11.1829 7.45455 14.7273C7.45455 15.1099 7.39768 15.4771 7.29652 15.8182H19.2727C19.7762 15.8182 20.1818 15.3315 20.1818 14.7273C20.1818 11.1829 17.3941 8.18182 13.8182 8.18182Z" fill="currentColor"/>
</svg>
