<svg xmlns="http://www.w3.org/2000/svg" viewBox="0 0 24 24"><path d="m9 16-.825 3.275A.915.915 0 0 1 7.25 20a.947.947 0 0 1-.775-.375.878.878 0 0 1-.175-.825L7 16H4.275a.96.96 0 0 1-.8-.387.947.947 0 0 1-.175-.863.883.883 0 0 1 .35-.55c.183-.133.392-.2.625-.2H7.5l1-4H5.775a.96.96 0 0 1-.8-.387.947.947 0 0 1-.175-.863.883.883 0 0 1 .35-.55c.183-.133.392-.2.625-.2H9l.825-3.275A.915.915 0 0 1 10.75 4c.317 0 .575.125.775.375.2.25.258.525.175.825L11 8h4l.825-3.275A.915.915 0 0 1 16.75 4c.317 0 .575.125.775.375.2.25.258.525.175.825L17 8h2.725c.333 0 .6.13.8.387.2.259.258.546.175.863a.883.883 0 0 1-.35.55c-.183.133-.392.2-.625.2H16.5l-1 4h2.725c.333 0 .6.13.8.387.2.259.258.546.175.863a.883.883 0 0 1-.35.55c-.183.133-.392.2-.625.2H15l-.825 3.275a.915.915 0 0 1-.925.725.948.948 0 0 1-.775-.375.878.878 0 0 1-.175-.825L13 16H9Zm.5-2h4l1-4h-4l-1 4Z"  fill="currentColor" /></svg>