<svg viewBox="0 0 24 24" fill="none" xmlns="http://www.w3.org/2000/svg"><path d="M21 8c.533 0 1 .2 1.4.6.4.4.6.867.6 1.4v2c0 .117-.017.242-.05.375s-.067.258-.1.375l-3 7.05c-.15.333-.4.617-.75.85-.35.233-.717.35-1.1.35H7V8l6-5.95c.25-.25.546-.396.887-.437.342-.042.671.02.988.187.317.167.55.4.7.7.15.3.183.608.1.925L14.55 8H21zM9 8.85V19h9l3-7v-2h-9l1.35-5.5L9 8.85zM4 21c-.55 0-1.02-.196-1.413-.587A1.926 1.926 0 0 1 2 19v-9c0-.55.196-1.02.587-1.412A1.926 1.926 0 0 1 4 8h3v2H4v9h3v2H4z" fill="currentColor"/></svg>