<svg viewBox="0 0 24 24" fill="none" xmlns="http://www.w3.org/2000/svg"><path d="M3 16c-.533 0-1-.2-1.4-.6-.4-.4-.6-.867-.6-1.4v-2a2.04 2.04 0 0 1 .15-.75l3-7.05c.15-.333.4-.617.75-.85C5.25 3.117 5.617 3 6 3h8c.55 0 1.02.196 1.412.587C15.804 3.98 16 4.45 16 5v10.175c0 .267-.054.52-.162.762a2.118 2.118 0 0 1-.438.638l-5.425 5.4c-.25.233-.546.375-.887.425a1.58 1.58 0 0 1-.988-.175 1.51 1.51 0 0 1-.688-.7c-.141-.3-.17-.608-.087-.925L8.45 16H3zM20 3c.55 0 1.02.196 1.413.587C21.803 3.98 22 4.45 22 5v9c0 .55-.196 1.02-.587 1.412A1.926 1.926 0 0 1 20 16c-.55 0-1.02-.196-1.413-.588A1.926 1.926 0 0 1 18 14V5c0-.55.196-1.02.587-1.413A1.926 1.926 0 0 1 20 3z" fill="currentColor"/></svg>