<svg viewBox="0 0 24 24" fill="none" xmlns="http://www.w3.org/2000/svg"><path d="M21 8c.533 0 1 .2 1.4.6.4.4.6.866.6 1.4v2a2.04 2.04 0 0 1-.15.75l-3 7.05c-.15.333-.4.616-.75.85-.35.233-.717.35-1.1.35h-8c-.55 0-1.02-.196-1.412-.588A1.926 1.926 0 0 1 8 19V8.825c0-.267.054-.521.162-.763.109-.241.255-.454.438-.637l5.425-5.4c.25-.234.546-.375.887-.425.342-.05.671.008.988.175.317.166.546.4.687.7.142.3.171.608.088.925L15.55 8H21zM4 21c-.55 0-1.02-.196-1.413-.588A1.926 1.926 0 0 1 2 19v-9c0-.55.196-1.021.587-1.413A1.926 1.926 0 0 1 4 8c.55 0 1.02.196 1.412.587C5.804 8.98 6 9.45 6 10v9c0 .55-.196 1.02-.588 1.412A1.926 1.926 0 0 1 4 21z" fill="currentColor"/></svg>