<svg fill="none" xmlns="http://www.w3.org/2000/svg" viewBox="0 0 24 24"><path fill-rule="evenodd" clip-rule="evenodd" d="M10.416 3.209h4c.55 0 1-.45 1-1s-.45-1-1-1h-4c-.55 0-1 .45-1 1s.45 1 1 1Zm2 5c-.51 0-.92.39-.98.89l1.98 1.97v-1.86c0-.55-.45-1-1-1Zm7 5c0-3.87-3.13-7-7-7-1.12 0-2.18.27-3.12.74l-1.45-1.45c1.35-.81 2.91-1.29 4.57-1.29 2.12 0 4.07.74 5.62 1.98l.75-.75a.993.993 0 0 1 1.4 0l.01.01c.39.39.38 1.02 0 1.4l-.75.75a8.963 8.963 0 0 1 1.97 5.61c0 1.68-.47 3.25-1.27 4.59l-1.47-1.47c.47-.94.74-2 .74-3.12Zm1.19 7.88L4.286 4.769a.996.996 0 1 0-1.41 1.41l2.07 2.07c-.92 1.38-1.48 2.99-1.53 4.72a8.998 8.998 0 0 0 9 9.24c1.84 0 3.55-.55 4.98-1.5l1.79 1.79c.39.39 1.02.39 1.41 0 .4-.39.4-1.02.01-1.41Zm-15.19-7.88c0 3.87 3.13 7 7 7 1.29 0 2.49-.35 3.53-.95l-9.57-9.57a6.875 6.875 0 0 0-.96 3.52Z" fill="currentColor"/></svg>