<svg fill="none" xmlns="http://www.w3.org/2000/svg" viewBox="0 0 24 24"><path fill-rule="evenodd" clip-rule="evenodd" d="M10.002 1.5h4c.55 0 1 .45 1 1s-.45 1-1 1h-4c-.55 0-1-.45-1-1s.45-1 1-1Zm3 12c0 .55-.45 1-1 1s-1-.45-1-1v-4c0-.55.45-1 1-1s1 .45 1 1v4Zm6.03-5.61.75-.75a.993.993 0 0 0 0-1.4l-.01-.01a.993.993 0 0 0-1.4 0l-.75.75a8.962 8.962 0 0 0-5.62-1.98c-4.8 0-8.88 3.96-9 8.76a8.998 8.998 0 0 0 9 9.24 8.994 8.994 0 0 0 7.03-14.61ZM5.002 13.5c0 3.87 3.13 7 7 7s7-3.13 7-7-3.13-7-7-7-7 3.13-7 7Z" fill="currentColor"/></svg>