<svg xmlns="http://www.w3.org/2000/svg" viewBox="0 0 24 24"><path d="m5.675 19-.55 1.65a.528.528 0 0 1-.175.25.465.465 0 0 1-.3.1H4.5a.48.48 0 0 1-.35-.15.48.48 0 0 1-.15-.35V19c-.55 0-1.02-.196-1.413-.587A1.926 1.926 0 0 1 2 17V6c0-.55.196-1.02.587-1.412A1.926 1.926 0 0 1 4 4h16c.55 0 1.02.196 1.413.588.391.391.587.862.587 1.412v11c0 .55-.196 1.02-.587 1.413A1.926 1.926 0 0 1 20 19v1.525a.459.459 0 0 1-.137.338.459.459 0 0 1-.338.137h-.175a.47.47 0 0 1-.45-.325L18.35 19H5.675ZM4 17h16V6H4v11Z"  fill="currentColor" /></svg>