<svg   viewBox="0 0 24 24" fill="none" xmlns="http://www.w3.org/2000/svg">
<path d="M5 10.9873C4.45 10.9873 3.97917 10.7915 3.5875 10.3998C3.19583 10.0081 3 9.5373 3 8.9873V4.9873C3 4.4373 3.19583 3.96647 3.5875 3.5748C3.97917 3.18314 4.45 2.9873 5 2.9873H9C9.55 2.9873 10.0208 3.18314 10.4125 3.5748C10.8042 3.96647 11 4.4373 11 4.9873V8.9873C11 9.5373 10.8042 10.0081 10.4125 10.3998C10.0208 10.7915 9.55 10.9873 9 10.9873H5ZM5 20.9873C4.45 20.9873 3.97917 20.7915 3.5875 20.3998C3.19583 20.0081 3 19.5373 3 18.9873V14.9873C3 14.4373 3.19583 13.9665 3.5875 13.5748C3.97917 13.1831 4.45 12.9873 5 12.9873H9C9.55 12.9873 10.0208 13.1831 10.4125 13.5748C10.8042 13.9665 11 14.4373 11 14.9873V18.9873C11 19.5373 10.8042 20.0081 10.4125 20.3998C10.0208 20.7915 9.55 20.9873 9 20.9873H5ZM15 10.9873C14.45 10.9873 13.9792 10.7915 13.5875 10.3998C13.1958 10.0081 13 9.5373 13 8.9873V4.9873C13 4.4373 13.1958 3.96647 13.5875 3.5748C13.9792 3.18314 14.45 2.9873 15 2.9873H19C19.55 2.9873 20.0208 3.18314 20.4125 3.5748C20.8042 3.96647 21 4.4373 21 4.9873V8.9873C21 9.5373 20.8042 10.0081 20.4125 10.3998C20.0208 10.7915 19.55 10.9873 19 10.9873H15ZM15 20.9873C14.45 20.9873 13.9792 20.7915 13.5875 20.3998C13.1958 20.0081 13 19.5373 13 18.9873V14.9873C13 14.4373 13.1958 13.9665 13.5875 13.5748C13.9792 13.1831 14.45 12.9873 15 12.9873H19C19.55 12.9873 20.0208 13.1831 20.4125 13.5748C20.8042 13.9665 21 14.4373 21 14.9873V18.9873C21 19.5373 20.8042 20.0081 20.4125 20.3998C20.0208 20.7915 19.55 20.9873 19 20.9873H15ZM5 8.9873H9V4.9873H5V8.9873ZM15 8.9873H19V4.9873H15V8.9873ZM15 18.9873H19V14.9873H15V18.9873ZM5 18.9873H9V14.9873H5V18.9873Z" fill="currentColor"/>
</svg>
