<svg xmlns="http://www.w3.org/2000/svg" viewBox="0 0 24 24">
<path fill="currentColor" d="M9.5 3.75a.75.75 0 1 1-1.5 0 .75.75 0 0 1 1.5 0zm3 6a.75.75 0 1 1-1.5 0 .75.75 0 0 1 1.5 0zm-.75 3.75a.75.75 0 1 0 0-1.5.75.75 0 0 0 0 1.5z"/>
<path fill="currentColor" fill-rule="evenodd" clip-rule="evenodd" d="M22 10.72s-.152-.178-.46-.455a9.9 9.9 0 0 0-.663-.543C19.412 8.62 16.494 7 12 7 7.506 7 4.588 8.62 3.123 9.722c-.27.203-.49.389-.663.543a5.54 5.54 0 0 0-.46.454L9.18 18c.35-.325.825-.562 1.359-.711l.565 1.267a1 1 0 1 0 1.17-.519l-.419-.94c1.133-.027 2.288.273 2.964.903L22 10.72zm-10.794 4.92c.27-.03.537-.044.794-.044.83 0 1.757.143 2.588.503l5.225-5.298a10.72 10.72 0 0 0-.997-.635C17.366 9.35 15.118 8.5 12 8.5s-5.367.849-6.816 1.666c-.388.219-.72.436-.996.635L9.412 16.1c.167-.073.339-.136.512-.192L7.94 11.452a.64.64 0 0 1 1.17-.52l2.096 4.707z"/><path d="M5.75 5.5a.75.75 0 1 0 0-1.5.75.75 0 0 0 0 1.5zm.75 1.25a.75.75 0 1 1-1.5 0 .75.75 0 0 1 1.5 0zm4.25-1.25a.75.75 0 1 0 0-1.5.75.75 0 0 0 0 1.5zm3.75-.75a.75.75 0 1 1-1.5 0 .75.75 0 0 1 1.5 0zm1.25-.25a.75.75 0 1 0 0-1.5.75.75 0 0 0 0 1.5zm2.75.25a.75.75 0 1 1-1.5 0 .75.75 0 0 1 1.5 0zm.25 2.75a.75.75 0 1 0 0-1.5.75.75 0 0 0 0 1.5z"/>
 </svg>