<svg xmlns="http://www.w3.org/2000/svg" viewBox="0 0 24 24">
  <path fill="currentColor" d="M6.388 14.387a.851.851 0 0 1 .98.663l.027.12a1.024 1.024 0 0 1-.823 1.217c-.217.04-.434.083-.652.129a1.022 1.022 0 0 1-1.19-.699L2.278 7.65a.982.982 0 0 1 .647-1.226c6.224-1.899 11.924-1.899 18.148 0a.982.982 0 0 1 .647 1.226l-2.45 8.167a1.022 1.022 0 0 1-1.19.699 30.378 30.378 0 0 0-4.628-.605 1.032 1.032 0 0 1-.954-.804c-.137-.626.341-1.228.981-1.197a31.91 31.91 0 0 1 4.132.477l1.9-6.333c-5.136-1.405-9.888-1.405-15.024 0l1.9 6.333Z"/><path d="m11.24 16.414-1.611-7.41a.973.973 0 0 0-1.15-.758.972.972 0 0 0-.806 1.178l1.612 7.415a1.5 1.5 0 1 0 1.954-.425Z"/>
</svg>